<?xml version="1.0" encoding="UTF-8" standalone="no"?>
<svg viewBox="0 0 1008.7972 2546.502" class="svg-object" id="body_front" xmlns="http://www.w3.org/2000/svg" xmlns:inkscape="http://www.inkscape.org/namespaces/inkscape">
  <path      id="body" 	                 style="display:none;stroke-width:0.1"                                    d="m 481.01541,2.1518339 c -30.3,5.9 -51.8,19.3000001 -67.4,41.9000001 -10.6,15.3 -15.8,31.7 -20.1,63.199996 -7.9,57.9 -9.3,120.4 -3.6,153.9 1.8,10.7 7.2,22.5 16.8,37.3 8.2,12.5 9,14 8.3,15.9 -0.3,0.8 0.1,12.3 1,25.6 1.8,27.6 1.5,43.4 -1,47.2 -5.5,8.5 -35.8,24.2 -66.6,34.7 -8.8,3 -16.8,4.7 -34,7.4 -33,5 -51.9,9.9 -70.7,18 -45.1,19.6 -78.3,53.8 -89.3,92 -5.5,19.3 -10.2,49.8 -12.5,80.9 -1.5,21.7 -3.3,29.8 -10.6,49.5 -6.8,18.3 -10.7,44.9 -12.9,88 -0.6,11.8 -1.5,26.2 -2,32 -0.5,5.8 -1.2,16.6 -1.5,24 -0.7,16.2 -4,55.5 -5.6,66 -1.2,8.1 -2,10.1 -12.299995,28.7 -8.1,14.9 -16.9,33.2 -19.5,41 -2.5,7.3 -5.3,24.5 -8.6,52.79997 -1.4,12.1 -3.2,26.9 -4,33 -1.6,12.2 -4.4,37 -7.5,66 -1.1,10.4 -3.8,35.4 -6,55.5 -2.2,20.1 -4.2,39.2 -4.6,42.5 -1.5,15.4 -4.6,33.8 -6.8,40.1 -1.3,3.8 -8.7,20.7 -16.4,37.4 -21.6000002,46.9 -25.0000002,56.5 -23.20000024,67.4 2.30000004,14.4 13.70000024,38.6 31.70000024,67.3 13.6,21.7 19,29.2 23.8,32.9 3.4,2.5 4.7,2.9 10.6,2.9 7.7,0 10.9,-1.9 10.9,-6.7 0,-1.5 -3.6,-10 -8,-18.8 -9,-17.9 -19,-40.8 -21.4,-48.8 -1.4,-5 -1.4,-5.7 0.1,-8.5 4,-7.9 25,-30.5 31.5,-33.9 3.1,-1.7 3.3,-1.7 5.1,0.1 1.7,1.7 2,4.3 2.7,24.5 0.9,25.2 1.4,26.9 8.1,31.4 3.8,2.7 9.099995,2.6 13.299995,-0.2 4.4,-2.8 7.7,-11.4 8.8,-22.8 0.9,-9.8 1.9,-15.4 5.5,-33.2 1.6,-7.4 1.6,-8.5 -0.1,-16.4 -1.6,-7.8 -6.4,-19.2 -10.6,-25.2 -4.6,-6.5 -8.2,-15.5 -10,-25 -3.399995,-17.2 -2.499995,-26.5 3.8,-43.1 12.3,-32.1 42.2,-98.2 69,-152.9 12.6,-25.7 20.3,-48.7 28.6,-85.49997 3.6,-15.8 4.2,-20 7.6,-49 2.7,-23.1 3.5,-27.7 7.6,-41 2.5,-8.3 6.1,-20.2 8,-26.5 1.9,-6.3 5.7,-18.3 8.4,-26.5 9.7,-29.7 15.6,-53.7 18.9,-77.8 1.2,-8.1 2.1,-14.9 2.1,-15.2 0,-0.3 0.4,-0.5 0.8,-0.5 0.5,0 1.9,3 3.2,6.7 1.2,3.8 3.7,10.2 5.5,14.3 1.8,4.1 5.1,13.5 7.4,20.9 2.4,7.4 6.9,19.8 10.1,27.5 4.6,11 6.2,16.1 7,22.6 0.5,4.7 1.9,11.6 3.1,15.5 4.3,14.7 5.9,23.8 5.9,35.2 0,6.2 0.6,16.1 1.4,22 0.8,5.9 1.7,15.5 2,21.3 0.3,5.8 1.1,19.3 1.6,30 0.8,14.7 1.6,21.1 3.1,25.8 2.6,7.9 2.3,21.19997 -1.1,44.69997 -1.7,12.1 -2.3,21.4 -2.5,38.5 -0.1,13.1 -0.7,24.6 -1.4,27.4 -2,8.4 -8,23.2 -19.1,47.6 -12.5,27.4 -15.4,34.7 -22.1,55.9 -8.4,26.6 -15.7,58.9 -19.3,85.6 -3,21.8 -3.5,41.7 -4.2,148 -0.7,114.5 -0.1,142.5 3.7,181.5 2.4,25.1 4.9,39 13.3,73.6 7,29 12.2,52.3 19.2,86.9 12.3,60.1 13,80 4.4,135 -11.7,76 -13,99.3 -8.5,159 5.1,67.4 10.4,112.4 17.1,145 10.2,50 12.9,92.4 7.4,116 -3.3,14.4 -6.7,24.7 -14.5,44.5 -13.3,33.9 -19,45.1 -31.4,61.5 -8.8,11.7 -36.8,39.9 -49.6,50 -19.4,15.2 -22.7,20.3 -18.6,28.3 3.1,6.1 11.7,14.3 19.9,19.1 14.5,8.4 27.7,10.5 68.2,10.5 22.6,0.1 30.9,-0.3 39.9,-1.7 16.6,-2.6 26,-5.9 31,-10.7 5.8,-5.6 12,-19.5 17.6,-39 10.3,-36.4 15.7,-51.9 20.1,-57.7 1.9,-2.5 4.2,-3.8 10.4,-5.7 4.4,-1.4 10.6,-3.9 13.8,-5.5 6.2,-3.1 16.3,-12.5 18.8,-17.4 4.1,-7.8 2.1,-24 -4.6,-38.2 -8.9,-18.6 -11,-36 -10.9,-89 0,-40.4 1.1,-59.2 4.4,-74.4 3.8,-17.9 17.2,-68.1 26,-97.6 2.8,-9.6 5.3,-18.8 7.1,-27 0.7,-3.3 2.4,-11.2 3.9,-17.5 5.6,-24.9 7.9,-43.1 7.9,-63.5 0,-26.1 -3,-41.7 -15.9,-84 -3.6,-11.6 -7.4,-25.1 -8.5,-30 -2.6,-11.9 -3.6,-27.4 -2.1,-35 4.1,-21 10.9,-63.2 16.6,-103 4.8,-33.5 5.6,-37.6 13.5,-69.5 13.3,-53.7 17.6,-96.8 20,-201.5 0.7,-31.1 1.7,-53.1 3.1,-68 2.1,-21.7 5.2,-44.1 6.3,-45.3 0.4,-0.3 2.2,0.2 4.1,1.1 4.5,2.1 17.9,2.3 25.5,0.3 3,-0.8 5.8,-1.2 6.1,-0.8 1,1.1 4.6,28.4 6.9,52.7 0.6,5.5 1.4,31.4 2,57.5 1.3,67.3 4.6,117 10.1,155 2.7,18.4 4.2,26.1 10.4,50.5 5.2,20.3 9.5,41.5 11.4,56 1,7.6 3.9,27.2 7,48 2.3,15.4 8.6,52.8 10.6,63.8 3,15.9 0.8,33.4 -7.6,60.3 -7.8,24.8 -12.9,44 -15.6,58.9 -4.9,26.9 -3.6,53.8 4.6,93.7 3,14.1 9.7,41.1 13.1,52.3 6.3,20.9 20.1,72.3 23.4,87.4 4.5,20 5.6,35.4 5.6,78.9 0,52.2 -1.7,68.7 -8.6,83.9 -4.6,10.2 -8.2,22.7 -9,31 -0.6,6.2 -0.4,7.7 1.6,11.8 4.9,10.1 15.6,18.1 32,24 4.1,1.4 8.5,3.3 9.7,4 4.3,2.8 8.8,14.7 18.8,49.1 14.2,48.9 17.7,53.8 43.1,58.8 23.6,4.6 73.1,4.6 96.9,0 11.8,-2.3 23.6,-8.3 31.2,-16.1 8,-8 9.7,-11.2 9.1,-17.5 -0.6,-6 -1.5,-7 -17.8,-20.2 -22.5,-18.2 -48.4,-45.7 -59.5,-63 -5,-7.8 -12.1,-23.3 -21.1,-45.4 -17.8,-44.1 -20.7,-59.1 -18.5,-93.5 1.8,-28.5 4,-44.5 9.4,-69.7 3.6,-16.2 7.2,-41.5 11.2,-78 3.1,-28.7 4.3,-42.2 7.5,-86.1 2.9,-38.9 0.9,-69.8 -8,-129.6 -1.1,-7.3 -2.9,-19.3 -4,-26.6 -5.3,-36.1 -4.4,-64.1 3.6,-105.2 5.9,-30.6 12.4,-60.4 21.3,-98 10.5,-44 12.7,-57.7 16.3,-100.5 1.7,-20.2 1.5,-267.9 -0.2,-285.3 -5.5,-55.7 -20.9,-114.7 -41.2,-157.2 -10.8,-22.7 -16.8,-37 -20.4,-49.1 -2.6,-8.4 -2.7,-10.1 -2.9,-31.4 -0.1,-18.3 -0.6,-26.1 -2.8,-41.5 -3,-21.5 -3.4,-33.69997 -1.2,-40.99997 2.1,-6.8 3.3,-18.2 4.5,-44.5 0.6,-12.4 1.6,-25.2 2.1,-28.5 0.6,-3.3 1.5,-14.6 1.9,-25 0.7,-16.5 1.3,-20.5 3.9,-30.2 1.7,-6.2 4.2,-16.6 5.5,-23 1.3,-6.7 3.8,-15.3 5.8,-19.8 1.9,-4.4 5.6,-14.1 8.2,-21.5 2.7,-7.4 6.2,-17.1 7.8,-21.5 1.7,-4.4 4.5,-12.1 6.2,-17 4.9,-13.7 4.6,-13.2 5.5,-11.5 0.5,0.8 1.4,6.4 2,12.5 2.4,22.1 7.9,45.3 18.9,80 2.8,8.8 6.2,19.8 7.6,24.5 1.4,4.7 5,16.8 8.1,27 5.2,17.1 5.8,20.4 8.5,43 4.5,37.7 7.9,55.3 16.1,82.99997 5.8,19.7 9.6,29.2 25.5,62.7 7.9,16.7 14.4,30.5 14.4,30.7 0,0.2 2.5,5.7 5.6,12.2 11.3,24 37.3,83.3 42.4,96.9 6.6,17.5 7.7,24.6 6.1,38.1 -1.3,11.8 -3.7,19.5 -8.6,27.9 -11.1,19 -14.1,28.5 -13.2,42 0.4,4.9 1.3,11.5 2.2,14.6 0.8,3.1 2.1,11.2 3,18.1 1.9,17 3.1,21.1 7.1,25.2 3.6,3.7 7.8,5.1 12.3,4.1 3.4,-0.7 7.9,-4.8 9.3,-8.5 0.6,-1.4 1.4,-12.6 1.9,-25 1,-24.6 1.4,-25.8 6.5,-24.6 3.7,1 23.6,21.1 29.2,29.5 2.4,3.7 4.2,7.5 4.2,9.1 0,5.3 -6.1,20.5 -18.2,45.1 -12.8,26.2 -13.2,27.5 -8.8,31.9 2.3,2.3 8.1,2.6 14.2,0.8 4.5,-1.3 9.1,-6.4 18,-19.3 15,-22 35.69999,-60.2 40.39999,-74.5 2.8,-8.9 2.3,-18.8 -1.5,-29.5 -5,-13.7 -9.09999,-23.3 -18.39999,-43 -19.6,-41.7 -21.1,-46.3 -24.2,-74.5 -0.8,-8 -2.4,-22.2 -3.5,-31.5 -1.1,-9.4 -3.4,-29.8 -5,-45.5 -5.6,-51.8 -10,-92.3 -12,-108 -1.1,-8.5 -2.7,-21.39997 -3.5,-28.49997 -2.3,-19.1 -5.4,-36.2 -7.7,-43 -2.6,-7.6 -18.1,-39.8 -23.7,-49 -2.3,-3.9 -5.1,-9.9 -6.1,-13.5 -2.1,-7 -4.3,-26.6 -6,-53 -0.6,-9.1 -1.7,-26.4 -2.5,-38.5 -0.8,-12.1 -2,-30.6 -2.5,-41 -2.6,-49 -4.6,-60.8 -16,-94.3 -6.1,-18.3 -6.1,-18.4 -7.1,-34.5 -1.7,-29.8 -5.2,-55.6 -10.5,-77.5 -6.3,-25.9 -16,-43.1 -35.3,-62.3 -17.9,-17.8 -31.7,-27.3 -52.9,-36.6 -23.5,-10.3 -43.9,-15.5 -84.2,-21.3 -11.3,-1.6 -22.1,-4.7 -36.5,-10.5 -26.1,-10.6 -48.3,-22.6 -53.3,-28.9 -3.2,-4.1 -3.6,-11.6 -2.3,-38.6 1.8,-36.7 2,-39.2 3.9,-42.2 19.1,-30 20.6,-33 23.4,-49.3 2.1,-11.9 2.3,-16.1 2.3,-50 0,-37.4 -0.7,-51.1 -4.6,-86 -4.7,-42.299996 -8.9,-57.699996 -20.9,-76.399996 -6.7,-10.4 -22,-25.1 -32.3,-31 -15.6,-8.8000001 -35.4,-13.90000008 -56.7,-14.60000008 -11.6,-0.4 -15.4,-0.1 -26.4,1.99999998 z"      inkscape:label="Body" />
  <path      id="none"                   style="display:inline;fill:#a7a7a7;fill-opacity:1;stroke-width:0.1"      d="m 530.41541,8.6518339 c 17.9,4.4000001 29.1,9.5000001 41.6,19.1000001 14.3,10.8 24.6,26.2 30.8,45.8 8.2,25.9 14.3,93.199996 13.3,145.899996 -0.9,45.1 -2.8,52.1 -21.5,80 -6.4,9.5 -7.7,10.9 -19.8,19.8 -7.1,5.3 -15.4,12 -18.4,14.8 -3,2.9 -7.6,6.6 -10.1,8.3 -13.4,9.2 -33.3,17.3 -42.4,17.3 -12.3,0 -36.9,-12.2 -51.4,-25.5 -6.8,-6.2 -18.8,-15.7 -25.9,-20.5 -4.2,-2.7 -6.8,-5.9 -12.4,-14.5 -13.4,-20.7 -17.4,-29.7 -20,-46 -1.7,-10.7 -1.7,-78.5 0,-99 1.5,-17.5 4.7,-46 6.3,-55.999996 3.2,-20.3 10.5,-40.9 18.4,-51.9 15.5,-21.5 36.3,-33.7 67,-39.1000001 11.3,-2 33.3,-1.3 44.5,1.5 z m -16.5,711.7999961 c 7.4,10.2 24.6,22.6 34.2,24.7 1.8,0.3 3.6,1.1 3.9,1.7 0.5,0.8 -3.1,0.9 -12.4,0.5 -24.5,-1.1 -30.1,1.8 -33.2,16.7 -1.4,6.7 -2,6.3 -4.3,-2.8 -3,-11.5 -8.9,-14.2 -29.6,-13.9 -6.8,0.2 -13.3,0.5 -14.5,0.8 -1.2,0.3 2.7,-1.9 8.6,-5 7.8,-4 12.8,-7.4 17.9,-12.2 6.5,-6.2 16.9,-19.3 16.9,-21.5 0,-0.5 0.7,-2.5 1.5,-4.6 l 1.6,-3.6 3.4,7.7 c 1.8,4.3 4.5,9.5 6,11.5 z m -81,33.1 c -1.5,1.5 -13,4.2 -11.6,2.8 0.7,-0.7 2.6,-1.7 4.4,-2.4 3.9,-1.4 8.5,-1.7 7.2,-0.4 z m 149.9,0.4 c 6.3,1.6 7.6,3.9 1.5,2.6 -4.2,-1 -7.9,-2.6 -7.9,-3.4 0,-0.7 1,-0.6 6.4,0.8 z m -174.5,16.4 c -7.2,7.5 -11.7,14.9 -14.4,23.3 -2.3,7.3 -2.9,7.7 -5.3,3.8 -1.1,-1.8 -3.9,-5.1 -6.1,-7.3 -2.3,-2.1 -4.1,-4.2 -4.1,-4.5 0,-0.3 1.8,-1.4 4,-2.4 2.2,-1 8,-4.7 13,-8.2 7.5,-5.4 17.3,-11.3 18.9,-11.4 0.2,0 -2.5,3 -6,6.7 z m 205.5,5 c 7.7,5.1 14.6,9.3 15.3,9.3 2.2,0 1.5,1.4 -2.8,5.5 -2.2,2.2 -5,5.5 -6.1,7.4 l -2.2,3.4 -1.2,-2.9 c -0.7,-1.6 -2,-5 -2.9,-7.6 -2,-5.8 -8.5,-16.1 -13.3,-21.1 -2.1,-2.1 -3,-3.7 -2.2,-3.5 0.8,0.2 7.7,4.5 15.4,9.5 z m -391.9,89.5 c -0.7,2.4 -3.2,9.7 -5.4,16.3 -2.2,6.6 -4.8,14.6 -5.7,17.8 -1.1,4.2 -3,7.5 -6.7,11.9 -19.1,22.5 -35.7,44.3 -40.7,53.5 -1.3,2.4 -2.7,4.3 -3.2,4.3 -0.4,0 -0.8,-2 -0.8,-4.5 0,-10.1 -7.3,-59.1 -12.6,-84.3 -1.4,-6.8 -2.4,-12.5 -2.1,-12.8 0.2,-0.3 2.5,2.3 5,5.8 9.4,13.2 17.8,18.8 29.5,19.6 6.6,0.4 7.8,0.2 13.5,-2.6 8.5,-4.3 16.6,-11.4 23.8,-21 3.4,-4.5 6.3,-8.2 6.5,-8.2 0.1,0 -0.3,1.9 -1.1,4.2 z m 571.8,5.4 c 15.2,19.4 30,26.1 45.1,20.4 6.8,-2.6 16.2,-11.4 22.2,-20.7 1.9,-3 3.7,-5.4 3.9,-5.2 0.2,0.2 0,2.2 -0.5,4.4 -4.3,20.6 -7.4,37.2 -9.1,48.5 -3.2,21.2 -5.9,43.2 -5.9,47.2 0,2.1 -0.4,3.8 -1,3.8 -0.5,0 -2.1,-2.1 -3.6,-4.8 -7.3,-12.7 -22.4,-33 -37.1,-50 -6.9,-7.9 -7.4,-8.8 -10.9,-20 -2,-6.4 -5.2,-16.1 -7,-21.5 -1.9,-5.5 -3.4,-10.2 -3.4,-10.5 0,-0.8 0.6,-0.1 7.3,8.4 z m -154.5,847.09997 c 4.5,4.4 14.6,9.9 20.6,11.3 6.5,1.4 13.9,-0.1 20,-4.2 2.6,-1.7 4.9,-2.8 5.1,-2.6 0.3,0.3 0,4 -0.5,8.4 -4.9,38 -2.3,72.3 6.8,92.4 4.5,9.9 10.3,14.7 25.6,20.9 2.9,1.2 2.9,1.2 2.2,7.8 -0.6,5.4 -1.4,7.6 -4.9,12.7 -18.4,27 -47.1,119.4 -60.6,195.1 -1.2,6.6 -2.8,15.4 -3.6,19.5 -1.6,8.9 -5.6,37.6 -8.4,62 -5.8,48.6 -8.7,109 -7.8,157 0.9,43.5 2.7,57 7.7,57 1,0 9.5,-2.3 18.7,-5.1 22.4,-6.7 31.7,-8.9 38.4,-8.9 10.2,0 11.3,0.5 13.4,6.3 11.8,33.7 25.2,65.6 33.3,79.3 11.5,19.4 40.4,50 66.2,70.4 6.3,4.9 11.9,9.9 12.4,11 2.6,5.8 -7.1,17.8 -19.6,24.1 -13.9,7 -35.6,9.5 -74.8,8.6 -20.6,-0.5 -26.4,-1 -36,-3 -12.7,-2.7 -16.1,-4.1 -20.4,-8.4 -5.8,-5.8 -9.8,-15.9 -19.5,-49.8 -8.1,-28.6 -13.8,-43.1 -18.6,-47.7 -1.2,-1.1 -7,-3.8 -12.9,-5.9 -5.9,-2 -12.6,-5 -14.8,-6.5 -5.9,-4.1 -12.6,-12.1 -14,-16.5 -1.8,-6.3 0.3,-16.7 6.6,-32.1 3,-7.3 6.1,-16.7 7,-20.9 2.2,-10.7 3.6,-35.2 3.6,-63.4 0,-13.2 0.5,-26.7 1,-30 5.2,-30.8 6.4,-44.9 8.1,-92.6 1.3,-34.8 0.2,-96.2 -2.2,-126.9 -0.8,-10.9 -0.7,-17 0.6,-31.5 0.9,-9.9 1.8,-18.5 2,-19.2 1.3,-3.9 2.5,-47.2 1.6,-57.1 -2.8,-30.2 -12.3,-54.2 -28.2,-71.5 -4.6,-5.1 -6.1,-7.5 -6.9,-11.3 -2.8,-13.8 -4.7,-24.4 -4.3,-24.8 0.3,-0.2 2.4,0.2 4.6,1 16.7,6 31.6,5.6 40.3,-1.1 6.4,-4.9 8.7,-12.6 9.9,-33.5 1,-16 -4.2,-75 -7.1,-80.3 -0.4,-0.7 0.9,0.6 2.7,2.8 1.8,2.2 4.8,5.5 6.7,7.2 z m -261.3,-5.5 c -0.2,1.3 -1.1,7.5 -1.9,13.8 -5.7,44.4 -5.1,81 1.4,91.6 3.7,5.9 15.9,10.1 26.3,9.1 3.4,-0.3 9.8,-1.5 14.1,-2.7 4.4,-1.1 8.2,-1.8 8.4,-1.5 0.3,0.3 -0.2,4.7 -1.1,9.8 -1,5.1 -1.7,10.7 -1.7,12.4 0,2.4 -1.6,5.1 -7,11.5 -17.4,20.9 -27.2,45.6 -28.9,72.7 -1,15.9 0.3,46.2 3,72.6 2,20.3 2.1,23.4 1,40.5 -2.4,38.5 -3.2,83.4 -2.1,118.5 1.6,51.9 2.9,68.3 7.5,93 1,5.6 1.4,15.6 1.5,33 0.1,50 2.8,69.3 12.7,88.9 2.8,5.5 5.3,16 5.3,22.5 0,11.9 -10.1,21.4 -30.5,28.6 -5.4,1.9 -10.6,4.2 -11.7,5.2 -5,4.5 -9.8,17 -20.3,53.4 -8.9,30.8 -13.5,41.4 -19.7,45.9 -4.7,3.5 -13.9,6.4 -25.3,8.2 -10.3,1.6 -68.8,1.6 -80.2,0 -19.7,-2.7 -35,-11.2 -42.2,-23.2 -2.6,-4.3 -2.7,-7.1 -0.3,-9.7 0.9,-1.1 6.4,-5.7 12.2,-10.3 13.4,-10.7 39.8,-36.6 50.5,-49.5 9.2,-11.2 16.2,-22 22.8,-35.1 5.1,-10.3 20.2,-47.8 24.3,-60.6 2.1,-6.6 3.3,-8.8 4.8,-9.2 7.7,-2.1 24.6,1 49.4,8.8 7.9,2.6 15.2,4.6 16.2,4.6 1,0 2.7,-1.5 3.8,-3.3 3.8,-6.1 4.7,-21.7 4.6,-78.2 0,-47.7 -0.3,-54.7 -2.8,-84.5 -5.1,-61.1 -10.5,-100.7 -20.2,-148.5 -15.6,-76.4 -38.3,-146.5 -57.4,-177 -3.2,-5 -3.9,-7.1 -4.2,-12.3 l -0.3,-6.2 7.9,-3.5 c 16.7,-7.3 24.3,-20.5 27.7,-47.9 1.4,-12 0.5,-53.7 -1.4,-64.1 -0.8,-3.9 -1,-7.1 -0.6,-7.3 0.4,-0.2 2.8,1.1 5.4,2.7 6.6,4.2 14,5.7 20.1,4.2 7.3,-1.9 17.3,-7.9 22.9,-13.8 5.5,-5.8 6.8,-6.5 6,-3.1 z m 128.1,-900.49997 c 2.3,10.7 5.9,17 11.3,19.7 1.4,0.7 7.6,2.5 13.6,4 6.1,1.5 12.8,3.1 15,3.7 2.2,0.5 6.7,1.6 10,2.3 6.2,1.3 13.6,4.1 33.8,12.8 11.6,4.9 12,5 16.3,3.8 8.5,-2.4 11.9,-9.5 13.1,-27.3 0.4,-5.9 1,-8.7 1.8,-8.7 0.7,0 3.2,3 5.5,6.7 l 4.3,6.8 -3.7,14.5 c -4.5,17.7 -7,34.9 -5.6,38.4 0.5,1.4 2.1,3.2 3.5,4.2 1.4,0.9 2.5,2 2.5,2.5 0,0.5 -1.5,3 -3.4,5.6 -10.4,14.5 -17.3,35.7 -16.1,49.4 1.1,13.5 0.8,18.3 -2.1,31.9 l -2.8,13.5 -0.3,78.49997 c -0.4,84.2 0,92.3 4.8,117.7 2.1,11.3 2.2,13 1.1,22 -1.5,12 -6.2,28.4 -10.7,37.9 -1.9,4 -10.6,17.1 -19.2,29.3 -8.7,12.1 -19.2,26.9 -23.3,32.8 -4.1,6 -11.3,15.3 -15.9,20.8 -4.6,5.5 -10.6,13.3 -13.3,17.2 -6.5,9.7 -8.6,10.7 -21.8,10.7 -13.4,0.1 -15.1,-0.8 -22.3,-11.6 -3.1,-4.6 -8.9,-12.4 -13,-17.3 -14.9,-17.9 -52.8,-71.8 -57.7,-81.9 -6,-12.6 -12,-35.4 -12,-45.1 0,-2.2 1,-9 2.1,-15 4.7,-26.3 5,-33 4.7,-117 l -0.3,-78.99997 -3.4,-16.5 c -3,-14.4 -3.2,-17 -2.2,-20.8 0.6,-2.3 1.1,-8 1.1,-12.6 0,-12.7 -4.3,-25.4 -13.8,-40.9 l -5.4,-8.8 2.7,-3.5 c 1.4,-1.9 2.9,-4.9 3.2,-6.8 0.7,-4.5 -2.2,-21.3 -6.3,-36.4 -1.9,-6.7 -3.4,-12.7 -3.4,-13.2 0,-0.6 2.1,-4.2 4.7,-8.1 5.5,-8.3 5.4,-8.5 7.3,8.1 1.4,12.2 2.6,15.6 6.9,19.3 5.8,4.8 7.7,4.6 28.6,-3.9 10.5,-4.2 20.5,-8.1 22.3,-8.5 1.7,-0.5 4.9,-1.3 7,-1.9 2,-0.5 8,-1.9 13.2,-3 11.7,-2.5 21.7,-5.7 25.1,-8.1 4,-2.8 7.5,-8.8 8.8,-15.2 1.3,-6.2 2.7,-7.3 3.7,-3 z m 0.8,91.1 c 2.2,4.2 4.5,5.8 12.1,8.2 3.9,1.2 9.3,3 12,4 2.8,1 7,2.4 9.5,3.1 4.4,1.4 4.2,1.4 -9.5,1.9 -8.7,0.3 -14.9,1 -16.2,1.8 -1.3,0.7 -3.3,3.2 -4.5,5.5 -2.2,4 -2.3,5.3 -2.3,25.7 v 21.5 l 2.7,4.7 c 3.6,6.1 9.7,9 24.3,11.8 11.9,2.2 21.7,5.1 28,8.1 2.2,1 5.8,2.59997 8,3.49997 6.7,2.7 2.2,2.7 -11.2,-0.1 -26.7,-5.49997 -40.8,-5.09997 -50.1,1.5 -4.4,3.1 -4.7,3.2 -7.1,1.6 -4.7,-3.1 -10.9,-5.59997 -16.2,-6.59997 -7.5,-1.4 -26.6,0.7 -49.4,5.49997 -2.6,0.5 -2.3,0.2 1.5,-1.9 6.3,-3.49997 20.7,-8.19997 32.4,-10.59997 15.2,-3.1 21,-5.6 25.6,-10.7 4.8,-5.5 5.3,-8.6 4.8,-32.3 -0.5,-27 -2.3,-29.2 -24.4,-29.1 -7,0 -12.4,-0.2 -12.1,-0.5 0.2,-0.2 7.1,-2.5 15.3,-5 16.9,-5.2 18.8,-6.1 21.1,-10.9 2,-4.2 3.8,-4.4 5.7,-0.7 z m 46.3,-559.1 c -0.3,0.5 -7.3,21.7 -15.6,47.3 -8.4,25.6 -15.6,47.6 -16.1,49 -10.7,31.3 -15,46.2 -14.4,50 0.6,3.5 1,4 3.2,4 4.6,0 10.9,-3.9 15,-9.3 5.4,-6.9 23.8,-36.5 31.5,-50.4 3.4,-6.2 6.5,-11.3 6.8,-11.3 0.3,0 2.9,3.5 5.6,7.7 7.2,11 18,22.3 28.6,29.9 10,7.1 12.9,8.3 15.4,6.3 1.4,-1.2 1.5,-3.4 0.9,-17.9 -0.3,-9.1 -0.9,-18.1 -1.2,-20 l -0.5,-3.5 2.8,3 c 1.5,1.7 4.2,4.7 5.8,6.6 9.4,10.9 25.4,17.9 41.1,17.9 7.4,0 21.8,-2.7 27.5,-5.2 4.5,-1.9 8.7,-5.7 11.4,-10.2 0.9,-1.5 2,-1.4 14.5,1.3 17.4,3.9 40.3,10.6 40.8,11.9 0.1,0.5 -1.6,1.3 -4,1.7 -14.3,2.3 -61.8,12.2 -79.5,16.5 -11.4,2.8 -32.3,9 -46.3,13.7 l -25.5,8.7 -25.5,0.6 c -25.8,0.7 -42.4,2.6 -48.2,5.6 -4.3,2.2 -8.7,7.5 -10.7,12.9 -2.7,7.4 -4,18.6 -4.6,41.5 -0.3,11.3 -1.2,26.1 -2,33 -0.8,6.9 -1.9,21 -2.5,31.5 -0.6,10.4 -1.4,20.1 -1.7,21.5 l -0.5,2.5 -0.9,-2.3 c -1.5,-3.9 -6.3,-62.6 -7.9,-95.7 -1.1,-23.5 -2.1,-29.6 -6.2,-36.7 -3.9,-6.6 -8.8,-9.5 -17.8,-10.7 -17.2,-2.3 -29,-3.1 -45,-3.1 -16.1,0 -17.2,-0.1 -25.2,-2.9 -11.8,-4.2 -41.7,-13.8 -51.8,-16.6 -18.8,-5.3 -92.2,-20.5 -98.7,-20.5 -7.2,0 5.1,-4.4 27.8,-10 8.7,-2.1 18.4,-4.2 21.6,-4.5 5.6,-0.7 5.9,-0.6 8.1,2.4 5,6.8 16.9,11.6 31.7,12.7 21,1.6 37.6,-5.6 51.9,-22.6 l 3.8,-4.5 -0.6,7 c -1.7,20.7 -1.9,32.5 -0.6,34 2.3,2.7 5.7,1.6 13.9,-4.6 12.9,-9.7 23.1,-19.9 29.6,-29.8 3.3,-5 6.3,-9.1 6.6,-9.1 0.3,0 1.3,1.7 2.3,3.7 2,4.2 19.8,33.8 28.4,47.3 5.8,9.2 13.1,17.3 17.5,19.6 3.1,1.7 6,0.7 8.8,-2.9 1.4,-1.7 1.4,-2.3 0.4,-3.3 -0.7,-0.7 -1.6,-3 -1.9,-5.1 -0.7,-3.8 -4.1,-14.4 -30.5,-94.7 -7.8,-23.6 -13.9,-43.1 -13.6,-43.4 0.2,-0.2 2.6,1.2 5.4,3.2 5.3,3.9 21.1,11.6 30,14.7 13.5,4.7 32.6,-0.3 53.2,-14.1 7.8,-5.2 8.3,-5.5 7.6,-4.3 z" 	 inkscape:label="None" />
  <path      id="soleus" 	             style="display:inline;stroke-width:0.1"                                  d="m 614.81541,2123.1518 c 0,60 -0.2,72.6 -1.7,88.5 -3.2,33.1 -3.1,32.6 -4.5,16.3 -1.3,-15.4 -3.7,-28.6 -8.2,-45.8 -1.5,-6.1 -4.2,-16.4 -6,-23 -1.7,-6.6 -4.5,-16.2 -6.1,-21.3 l -3.1,-9.2 3.5,-6.3 c 5.2,-9.2 14.2,-37.1 18.2,-56.3 2,-9.3 4.1,-18.7 4.8,-20.9 l 1.2,-4 0.9,6 c 0.5,3.3 0.9,37.5 1,76 z m -217.4,-79.8 c 0,2.9 3.3,20 6,30.8 5.4,22.1 7.4,27.9 15.7,45.5 l 4.4,9.5 -3.6,11.5 c -9.8,31.6 -17.9,68.5 -20.2,91.5 -0.6,6.7 -0.7,6.8 -1.4,3 -0.4,-2.2 -1.5,-13.7 -2.5,-25.5 -1.5,-17.8 -1.8,-32.5 -1.9,-85.5 0,-61.6 0.7,-81.5 2.6,-81.5 0.5,0 0.9,0.3 0.9,0.7 z"      inkscape:label="Soleus" />
  <path      id="peroneus_longus" 	     style="display:inline;stroke-width:0.1"                                  d="m 733.61541,1974.8518 c 1.9,20.7 1.6,74.3 -0.5,99.3 -6.7,77.5 -11.5,116.7 -18.2,147 -4.9,22.3 -7.6,46.8 -8.2,74 -0.5,20.9 -0.3,26.4 1.1,33.1 0.9,4.5 1.6,8.3 1.6,8.7 0,0.3 -3.5,0.3 -7.9,0 -8.7,-0.6 -17,0.9 -32.1,5.8 -9.5,3 -12.5,3.6 -11.5,2 0.3,-0.6 3.4,-12.4 7,-26.3 7.8,-31 12.5,-49.2 16,-62.3 17.2,-65 30.5,-119.9 32.9,-136.4 4.2,-28.2 9.4,-77.4 12.1,-112.6 1.9,-25.5 3.4,-43 4.1,-47.5 0.6,-3.1 0.7,-3.3 1.4,-1.3 0.5,1.1 1.5,8.6 2.2,16.5 z m -452.2,12.3 c 0.6,10.4 1.8,25.5 2.6,33.5 0.8,8 2.4,23.6 3.4,34.8 2.6,26.6 7.5,64.9 10.1,78.7 1.1,6 4.3,19.8 7,30.5 2.8,10.7 7.7,29.6 10.9,42 6.6,25.7 20.2,78.7 28.9,112.5 3.3,12.6 6.2,23.8 6.6,24.7 0.9,2.4 -0.7,2.3 -8.1,-0.2 -12.9,-4.5 -31.1,-8 -36.4,-7 -6.6,1.2 -6.9,0.9 -5.4,-6.8 4.4,-23.1 1.5,-66.4 -7.5,-111.9 -5.5,-27.6 -7.6,-41.8 -11.1,-74.8 -6.7,-62.5 -9.6,-110.1 -8.6,-139.8 0.6,-18.3 2.8,-41.2 4.3,-44.7 0.9,-2.2 2,6.9 3.3,28.5 z"      inkscape:label="Peroneus Longus" />
  <path      id="tibialis_anterior" 	 style="display:inline;stroke-width:0.1"                                  d="m 295.41541,1872.6518 c 9.8,19.4 22.5,53.8 32.5,88.5 21.1,73.1 34.4,152 40.6,241.1 2.7,37.7 3.1,113.2 0.8,134.4 l -1.4,12.5 -4.8,-0.1 c -2.7,0 -5.3,-0.6 -6.2,-1.5 -0.7,-0.8 -7.5,-25.6 -15,-55.3 -7.4,-29.6 -14.7,-58.1 -16.1,-63.5 -19.1,-73.2 -21.9,-84.4 -24.3,-98.1 -3.6,-20.3 -8.6,-61.2 -11.1,-92 -0.6,-7.4 -1.5,-16.9 -2.1,-21 -0.5,-4.1 -1.6,-15.8 -2.4,-26 -0.8,-10.2 -2.1,-26.2 -3,-35.5 -1.8,-17.9 -1.5,-27.5 1,-42.5 2.7,-15.9 5.5,-38.3 5.5,-44.4 0.1,-5.7 0.2,-6 1.6,-4.1 0.9,1.1 2.8,4.5 4.4,7.5 z m 424.3,1.7 c 0.4,5.4 1.8,17.4 3.2,26.8 5,32.8 4.9,32.1 2,66.7 -7.6,91.7 -15.4,161.3 -19.5,174.3 -0.6,1.6 -2.5,9.3 -4.4,17 -4.7,19.5 -13.8,54.9 -24.8,96.4 -3.2,12.5 -3.2,12.4 -7.9,31.1 -11.3,45.9 -15,59.5 -16.2,60.7 -0.8,0.8 -3.6,1.5 -6.3,1.6 l -4.9,0.2 -1.1,-10.1 c -3,-27.3 -2.6,-79 1.1,-141.4 5.8,-98.5 25.5,-199.3 55.5,-284.5 6.6,-18.6 20.1,-48.5 21.9,-48.5 0.5,0 1.1,4.4 1.4,9.7 z"      inkscape:label="Tibialis Anterior" />
  <path      id="gastrocnemius" 	     style="display:inline;stroke-width:0.1"                                  d="m 420.51541,1859.3518 c 0.1,1 0.3,3.9 0.4,6.5 0.7,14.5 3.7,28 11.6,53.3 5.5,17.6 11.1,39.3 13.5,52.5 2.4,13.3 2.9,36.3 1,51.5 -2.9,24.2 -11.1,62 -20,91.8 l -2.3,7.9 -1.5,-3.4 c -10.7,-23.2 -21.2,-64.4 -26.3,-103 -4.6,-34.3 -6.7,-79.1 -4.6,-95.3 2.7,-20.6 9.2,-37.6 21.4,-55.8 5.3,-7.9 6.6,-9 6.8,-6 z m 177,9.6 c 10,15.5 16.1,31.8 18.6,49 1.7,12.2 1.4,45.1 -0.7,67.7 -1.6,17.4 -5.9,50.7 -7.5,57.5 -0.7,3.3 -2.5,11.4 -4,18 -4.9,22.5 -17.2,60.5 -19.5,60.5 -0.5,0 -1.4,-1.9 -2,-4.3 -0.6,-2.3 -2.5,-8.7 -4.1,-14.3 -7.1,-24.8 -15.3,-66.5 -17,-87 -2.4,-29.1 1.6,-54.6 15.5,-98.2 8.1,-25.2 12.2,-45.5 11,-53.4 -0.4,-2 -0.4,-4.5 0,-5.4 0.6,-1.5 0.8,-1.5 2.6,0.1 1.1,1 4.3,5.4 7.1,9.8 z"      inkscape:label="Gastrocnemius" />
  <path      id="vastus_medialis" 	     style="display:inline;stroke-width:0.1"                                  d="m 423.31541,1565.8518 c 0.6,2.9 2,9.6 3.1,14.8 1.1,5.2 4,18.5 6.5,29.5 2.5,11 5.4,23.8 6.5,28.5 1,4.7 2.4,14.1 3,21.1 1.6,16.8 0.8,56.3 -1.3,69.4 -1,5.5 -3.7,23.7 -6.2,40.5 -2.5,16.8 -5.1,34.1 -5.8,38.5 l -1.2,7.9 -6.8,2.3 c -8.5,3 -21.1,4.8 -27,3.9 -7.8,-1.2 -13.9,-6.6 -15.8,-14.2 -1.7,-6.7 -2.2,-32.2 -1,-48.9 3,-43.3 5.5,-58.4 13,-78.5 4.4,-11.8 12.4,-38.1 16.1,-53 1.7,-6.9 3.5,-14.1 4,-16 3.3,-12.7 10,-45.6 10,-49.3 0,-4.3 1.5,-2.4 2.9,3.5 z m 165.5,-2.5 c 0.3,1.6 1,5.9 1.6,9.8 1.3,8.7 10,46.5 14.7,64 3.7,14.2 11.1,37.5 16.7,52.6 1.9,5.3 3.8,12.5 4.1,16 0.4,3.5 1.3,10.2 2,14.9 2.1,12.5 4.5,46.4 4.5,62.3 0,15 -1.4,26.6 -3.7,31 -1.7,3.4 -10.4,7.7 -16.9,8.5 -8.7,0.9 -28.9,-4.4 -30.5,-8.2 -0.9,-2.2 -3.8,-19.8 -8.9,-55.1 -7.6,-52.9 -7.3,-49.9 -6.7,-76.5 0.8,-31.3 2.1,-39 16.7,-101 1,-4.1 2.3,-10.5 3,-14.3 1.3,-7.1 2.5,-8.5 3.4,-4 z"      inkscape:label="Vastus Medialis" />
  <path      id="vastus_lateralis" 	     style="display:inline;stroke-width:0.1"                                  d="m 252.51541,1413.2518 c 1,6 6.6,35 12.4,64.4 11.9,61.2 26.1,135.5 30,157.5 7.7,43.4 13.6,66 20,76.5 5.4,8.8 6.9,21.1 7,54.5 0,22.1 -0.3,28.7 -1.8,36.5 -2.1,11.1 -7.4,22.6 -12.6,27.8 -4.1,4 -15.8,9.9 -17,8.6 -0.5,-0.5 -1.3,-6.1 -2,-12.4 -2.6,-24.8 -13.4,-77.7 -31.1,-151.7 -7.3,-30.3 -9.5,-47.2 -12.6,-95.8 -1.2,-20.1 -1.6,-41.7 -1.5,-94.8 0,-37.8 0.4,-69.9 0.7,-71.5 0.4,-1.5 1.5,-3.8 2.4,-5.2 0.9,-1.4 2,-3.4 2.4,-4.4 1,-3 1.6,-1.5 3.7,10 z m 512.7,67.9 c 0.6,110.1 -2.3,149.2 -14.8,199.5 -14.1,56.2 -28.4,127.5 -30.6,151.3 l -0.7,7.9 -2.8,-0.6 c -3.5,-0.7 -13.7,-7 -16.2,-9.9 -3.3,-4.1 -7.6,-13.5 -9.7,-21.3 -3.4,-13.1 -4.3,-25.1 -3.7,-47.9 1,-32 2.4,-40.3 9.7,-53.5 2.3,-4.3 7.5,-20.5 8.9,-28 0.5,-3 2.3,-12 3.9,-20 1.7,-8 4,-19.9 5.1,-26.5 1.2,-6.6 3.1,-16.5 4.1,-22 1.1,-5.5 2.8,-14.7 3.9,-20.5 6.2,-33.4 7.3,-39 8.5,-44.5 0.8,-3.3 1.7,-8 2.1,-10.5 0.3,-2.5 1.2,-7.4 2,-11 1.4,-6.5 10.8,-54.5 18.5,-95 2.3,-11.8 4.6,-22.7 5.2,-24.3 l 1.1,-2.7 2.5,5.2 2.6,5.3 z"      inkscape:label="Vastus Lateralis" />
  <path      id="rectus_femoris" 	     style="display:inline;stroke-width:0.1"                                  d="m 349.01541,1230.1518 c 0.9,7.1 3.8,28.7 6.5,48 11,77.5 17,106.6 28.9,140.6 8.6,24.4 34.2,122.1 34.1,130.4 0,3.8 -0.8,7.9 -8.7,44 -10,46.1 -19.3,78.3 -28.7,100 -4.6,10.5 -6,12.8 -11.7,18.5 -11.8,11.8 -25.1,16.5 -34.1,12 -11.8,-6.1 -16.9,-12 -21.9,-25.8 -4.4,-12.2 -6.8,-23.7 -19.5,-92.7 -2.5,-13.8 -7.2,-38.7 -10.5,-55.5 -9.2,-46.8 -10.6,-54 -14.6,-75 -2,-10.7 -6.1,-31.7 -9.1,-46.5 -3.1,-14.9 -5.7,-28.1 -6,-29.5 -0.3,-1.6 1.3,-6.4 4.5,-13.5 5.3,-12 11.4,-28.9 18.7,-51.5 8,-25.1 11.9,-33.8 27.2,-60.6 7.3,-12.8 22.8,-35.3 36.2,-52.4 5.8,-7.4 6.6,-8.2 6.8,-6 0.2,1.4 1,8.3 1.9,15.5 z m 321.1,-7.8 c 9.2,11.6 30.5,43.1 38,56.3 12,20.9 18.2,35.6 26.8,63.5 4.8,15.4 11.2,32.6 16.5,44 3.3,7.1 4.1,9.7 3.6,12.5 -0.7,4.9 -3.8,20.8 -7.4,38.5 -1.7,8.2 -5.1,25.8 -7.7,39 -2.5,13.2 -5.2,26.9 -6,30.5 -0.8,3.6 -2.1,10.3 -3,15 -0.8,4.7 -2.4,13 -3.5,18.5 -6,30.8 -10.6,55.3 -15.5,82.5 -12.5,69.3 -16.7,83.6 -27.9,94.1 -4.2,3.9 -12.8,8.1 -18,8.6 -7.7,0.9 -21.3,-6.8 -29.7,-16.8 -6.5,-7.8 -15.3,-31 -24.8,-65.4 -8.4,-30.7 -21.1,-86.5 -21.1,-93.1 0,-1.9 1.4,-9.2 3.1,-16.2 12.7,-52.9 18.7,-75.5 27.4,-104.2 0.7,-2.5 3.2,-9.9 5.5,-16.5 6.7,-19.4 10.2,-33.4 15.9,-64 2.9,-15.3 9.5,-58.7 13.1,-85 1.1,-8.3 2.9,-21.7 4,-30 1.1,-8.2 2,-16.2 2,-17.7 0,-1.5 0.4,-2.8 0.9,-2.8 0.5,0 4,3.9 7.8,8.7 z"      inkscape:label="Rectus Femoris" />
  <path      id="gracilis" 	             style="display:inline;stroke-width:0.1"                                  d="m 390.11541,1229.1518 c 5.4,8 12,17.7 14.7,21.7 5.3,7.9 27.9,40.1 41.4,59.1 4.6,6.5 13.7,18.5 20.3,26.8 15.3,19.4 15.4,19.5 14,27.3 -3.9,21.9 -7.1,51.5 -7.2,67.6 0,6.9 -0.4,13.4 -0.8,14.4 -0.6,1.7 -0.9,1.6 -1.8,-1 -0.6,-1.6 -2.1,-7.6 -3.3,-13.4 -2.8,-13.6 -8.4,-38.6 -11.6,-52 -2.7,-11.1 -10.8,-31.8 -22.5,-57.8 -8.9,-19.7 -16.3,-33.8 -25,-47.4 -3.8,-5.8 -9.1,-15.3 -11.9,-21 -2.8,-5.7 -5.5,-11.1 -6.1,-12.1 -3.8,-6.8 -12.3,-28.1 -10.9,-27.2 0.5,0.3 5.3,7.1 10.7,15 z m 238.7,-10.5 c -3.4,10 -19.6,42.4 -26.5,53.1 -11.3,17.5 -24.5,44.1 -38.9,78.4 -7.8,18.8 -9.8,25.7 -18,64 -1.2,5.5 -3.3,14.6 -4.6,20.3 -1.3,5.7 -2.4,11.3 -2.4,12.5 0,1.5 -0.3,1.8 -1.1,1 -0.6,-0.6 -1.4,-9.1 -1.9,-19.9 -1,-19.8 -1.7,-26.9 -5.1,-52.4 -1.2,-8.5 -2.1,-16.7 -2,-18.3 0,-3.1 1.8,-5.7 15.2,-21.8 5.3,-6.4 11.6,-14.5 13.9,-18 2.4,-3.5 12.5,-17.9 22.5,-31.9 10,-14 24.1,-34.5 31.4,-45.5 11.6,-17.5 18.1,-26.5 18.8,-26.1 0.1,0.1 -0.5,2.2 -1.3,4.6 z"      inkscape:label="Gracilis" />
  <path      id="sartorius" 	         style="display:inline;stroke-width:0.1"                                  d="m 357.41541,1216.6518 c 4.6,16.8 9.3,34.1 10.6,38.5 1.2,4.4 4.9,17.7 8.2,29.5 25.7,92.2 52.3,179.4 64.8,212.5 10.5,27.9 14.8,41.7 20.9,67.5 2.9,12 3.7,17.5 3.7,24.5 -0.1,15.2 -4.8,51.2 -8.7,66.5 -2.4,9.1 -6.2,26.2 -7,30.8 -0.4,2.4 -1.1,4 -1.5,3.5 -0.4,-0.4 -1.2,-10.5 -1.8,-22.3 -0.9,-17.4 -1.7,-24.1 -4.1,-35 -6.7,-30.4 -15.1,-67.6 -15.6,-68.9 -0.3,-0.7 -2.3,-9.3 -4.5,-19 -12.4,-55.3 -23.3,-96.1 -34.5,-129.6 -3.5,-10.5 -7.5,-23.5 -8.9,-29 -6.2,-24.9 -13.9,-69.6 -21.1,-122.5 -1.9,-14.6 -4.9,-35.4 -6.5,-46.2 -2.6,-16.9 -3.9,-33.1 -2.6,-31.7 0.2,0.2 4.1,14.1 8.6,30.9 z m 300,1.5 c -1.6,12.1 -3.7,26.7 -4.5,32.5 -0.9,5.8 -2,13.9 -2.5,18 -2.1,15.8 -8.4,57.4 -10.9,71.5 -6.5,36.6 -10.9,54.3 -19.1,77.5 -6.7,18.9 -15.7,50.8 -22,77.5 -1.5,6.6 -4.6,19.4 -6.8,28.5 -2.2,9.1 -5,20.8 -6.2,26 -2.3,10.2 -4.2,18.2 -8.9,38 -12.3,51 -15,67.9 -15.1,92 -0.1,10.2 -0.2,11.2 -1.4,9 -1.6,-3 -9.8,-40.3 -12,-54.5 -5.5,-36 -5.9,-49.4 -2.2,-65.1 7.4,-30.3 11.2,-42.9 21.4,-69.9 9.3,-24.8 31.5,-93.5 38.5,-119.5 0.8,-3 6.7,-23.7 13.1,-46 14.3,-50 13.6,-47.5 18.4,-65 7.1,-25.5 11,-40.3 13.3,-49.5 1.2,-5 3.2,-12.4 4.4,-16.5 1.3,-4.1 2.9,-9.8 3.7,-12.5 l 1.3,-5 0.3,5.5 c 0.2,3 -1.1,15.3 -2.8,27.5 z"      inkscape:label="Sartorius" />
  <path      id="adductor_longus" 	     style="display:inline;stroke-width:0.1"                                  d="m 350.41541,1169.6518 c 0,0.5 2.2,4.1 4.8,8.2 2.7,4 6.5,9.8 8.6,13 3.5,5.4 10.6,20.5 10.6,22.6 0,2.2 9.1,23.4 15.3,35.7 6.7,13.4 8.2,16.1 18.1,32.4 10.4,16.9 21.6,40.3 34.1,71.1 7.9,19.7 8.9,22.6 12.4,39 1.6,7.4 4.5,21.1 6.5,30.5 2,9.3 5.2,22.2 7.1,28.5 3.4,11.1 3.5,12 3.5,28 0,9.1 -0.5,26.4 -1,38.5 -0.6,12.1 -1,27.8 -1.1,35 0,13.9 -0.6,18.7 -2,16.4 -0.4,-0.8 -2.2,-7.5 -3.9,-14.9 -4.6,-19.5 -6.8,-26.7 -16.5,-53.5 -18.2,-50.1 -44,-134.6 -69.2,-226.5 -0.8,-3 -3.4,-12.3 -5.8,-20.5 -2.3,-8.3 -7.1,-25.1 -10.5,-37.5 -3.4,-12.4 -6.9,-24.5 -7.7,-27 -4.2,-12.6 -6.1,-20.8 -4.7,-20.3 0.8,0.3 1.4,0.9 1.4,1.3 z m 308.7,7.2 c -0.8,2.9 -3.5,11.9 -6.1,20 -2.5,8.1 -6.1,20.7 -8,28 -1.9,7.3 -5.3,19.8 -7.6,27.8 -2.3,8 -5.3,18.5 -6.6,23.5 -1.4,4.9 -3.5,12.6 -4.9,17 -1.3,4.4 -6.1,21 -10.6,37 -11.5,40.9 -16.6,58.6 -19.9,69 -1.6,4.9 -4.9,15.7 -7.5,24 -10.5,34.2 -14.8,47.1 -21.6,65.6 -11,30.1 -17.3,50.1 -21,66.3 -3.3,14.3 -3.4,14.8 -4.1,10.5 -1,-5.8 -3.7,-70.7 -3.8,-87.9 0,-11.4 0.4,-15 2.6,-23 3.3,-12.1 8.2,-32.1 9.4,-38 7.6,-38 11,-49 23.6,-78 13.1,-29.9 20.6,-44.7 31.9,-63.5 13.2,-21.7 22.5,-41 29.2,-60.4 3.5,-10.3 7.7,-19.5 11.2,-24.4 1.6,-2.3 5.5,-8.3 8.7,-13.2 6.2,-9.5 7.6,-9.6 5.1,-0.3 z"      inkscape:label="Adductor Longus" />
  <path      id="gluteus_medius" 	     style="display:inline;stroke-width:0.1"                                  d="m 311.81541,1095.3518 c 0.2,1 0.8,3.8 1.1,6.3 1.4,9.1 8.9,25 22.2,46.9 3.5,5.7 6.3,11.1 6.3,11.8 0,1.9 4,45.3 4.3,46.3 0.1,0.5 -2.3,3.9 -5.4,7.7 -20.8,25.4 -37.8,51.2 -51.9,78.8 -6.3,12.3 -9.3,20 -17,43.5 -5.1,15.7 -10.7,31.9 -12.5,36 -1.8,4.1 -5.4,12.6 -8,18.7 -2.6,6.2 -5.2,11.3 -5.7,11.3 -1.7,0 -0.4,-91.3 1.5,-106.5 2.6,-20.9 8.1,-49.8 12.7,-67 8.8,-32.3 13.9,-47.1 24.3,-70 3,-6.6 8.6,-19 12.5,-27.6 3.9,-8.6 8.6,-20.6 10.4,-26.8 1.8,-6.1 3.6,-11.1 4,-11.1 0.4,0 0.9,0.8 1.2,1.7 z m 389.6,4 c 0.6,3.2 2.5,9.8 4.1,14.8 2.9,8.5 5.1,13.5 21.2,48 15.2,32.6 28.2,81 34.8,129.5 1.8,13.4 2.2,22 2.6,63.4 0.4,35.9 0.2,47.7 -0.6,47.5 -2.1,-0.7 -16.5,-36.4 -23.1,-57.2 -11.4,-36 -16.7,-48.6 -30.1,-71.3 -8.3,-14.1 -27.7,-42.1 -41.2,-59.6 l -6,-7.8 0.7,-7.2 c 0.3,-4 1.5,-15.3 2.5,-25 l 1.9,-17.7 5.8,-8.8 c 8.2,-12.4 17.4,-31.1 21.4,-43.6 1.9,-5.9 3.8,-10.7 4.2,-10.7 0.3,0 1.2,2.6 1.8,5.7 z"      inkscape:label="Gluteus Medius" />
  <path      id="external_oblique" 	     style="display:inline;stroke-width:0.1"                                  d="m 299.61541,825.15183 c 6.1,6.6 13.3,10.8 24.3,14.1 8.2,2.5 10.4,2.8 25.5,2.8 14.9,0.1 16.9,-0.1 20.7,-2 l 4.3,-2.1 1,3.6 c 4.6,17.7 6.3,24.8 7.5,32.6 2.5,16.6 1.1,18 -18,17.9 -13.1,-0.1 -22.2,-1.8 -31.9,-5.8 -15,-6.3 -32.9,-31.2 -36.5,-50.9 -0.6,-3.2 -2.6,-9.8 -4.6,-14.5 l -3.4,-8.7 3.2,4 c 1.7,2.2 5.3,6.2 7.9,9 z m 417.4,-4.4 c -1.3,3 -3.5,9.9 -4.7,15.4 -4.8,21.1 -19.7,41.8 -35.7,49.6 -5.6,2.8 -17.7,5.8 -28.1,7 -6.9,0.8 -9.3,0.7 -14.3,-0.7 -8.2,-2.3 -9.3,-4.2 -8.4,-14.2 1,-11.2 7.9,-38.8 9.7,-38.5 0.8,0.1 4.3,1 7.9,1.9 8.8,2.2 30.6,1.5 40,-1.4 11.8,-3.5 18.9,-7.8 27.5,-16.6 4.4,-4.5 8.1,-8.1 8.3,-8 0.2,0.1 -0.8,2.6 -2.2,5.5 z m -410.3,46.7 c 13.9,20.4 28.1,27.5 57.8,28.9 l 13.6,0.6 2.9,4.6 c 6.8,11 8.5,14.4 12.3,25.7 4.3,12.7 5.2,20.9 3,27.3 -1,2.9 -1.4,3.1 -6,3.1 -11.8,0 -34.5,-6.8 -45.4,-13.5 -14.6,-9.1 -24.1,-22.5 -34.5,-48.4 -2.2,-5.5 -4.2,-12 -4.6,-14.3 -0.5,-4 -2.9,-15 -4,-19.1 -0.9,-3 0.3,-1.9 4.9,5.1 z m 397.7,6.8 c -2.8,16.5 -3.4,18.2 -10.2,31.8 -11,22 -18.1,30.8 -30.8,38.2 -13.4,7.9 -42.2,15.4 -48.4,12.6 -3.3,-1.5 -4.2,-7.4 -2.6,-17.5 1.8,-12.3 6.1,-23 14.2,-35.5 l 4.8,-7.2 h 10.7 c 12.7,0 29,-3.3 37.4,-7.6 6.8,-3.4 18,-14.1 22.6,-21.7 2,-3.1 3.8,-5.6 4,-5.4 0.2,0.2 -0.6,5.7 -1.7,12.3 z m -393.1,33.7 c 13.9,28.9 25.2,39.9 48.7,47.5 8.5,2.8 23.6,5.9 31.3,6.4 l 3.5,0.3 1.8,9.5 c 4.9,24.9 4.9,25.4 5.4,66.49997 l 0.5,40 -25.3,-25.5 c -13.9,-14.1 -29.7,-29.1 -35,-33.3 -13.6,-10.9 -20,-20.09997 -25.1,-36.29997 -4.2,-13.4 -5.7,-23.9 -6.6,-46.4 -0.8,-18.3 -1.2,-22.2 -3,-26.3 -2.1,-4.8 -3.9,-14.7 -2.7,-14.7 0.3,0 3.3,5.5 6.5,12.3 z m 392.6,-4.4 c -0.4,2.8 -1.7,6.6 -3,8.5 -2,2.9 -2.2,4.3 -1.8,9.3 0.7,8.1 -1.4,38.2 -3.3,47.3 -4.9,23.5 -12.5,36.89997 -28.4,49.99997 -8,6.6 -31.4,29.4 -49.2,47.8 l -10.6,11 -0.7,-13.6 c -1.1,-19.1 0.1,-62.7 1.9,-73.69997 1.3,-7.9 3.5,-19.3 5.1,-26.3 0.5,-1.9 1.2,-2.2 5.5,-2.2 6,0 19.7,-3 29.8,-6.4 12.3,-4.2 19.2,-8.3 27,-15.9 6.9,-6.8 17.2,-20.7 17.2,-23.3 0,-0.6 0.7,-1.7 1.5,-2.4 0.8,-0.7 1.5,-1.8 1.5,-2.5 0,-0.7 1.4,-4.3 3.1,-8 3.6,-7.7 5.5,-7.5 4.4,0.4 z m -10.1,105.09997 c 0.3,6.3 1.2,15.8 2,21 5.2,34.3 4,51.5 -5.5,77.5 -6,16.4 -15.1,32.2 -38.9,67.5 -12.8,19 -24.9,36.7 -26.9,39.5 -2.1,2.7 -5.4,7.7 -7.5,11.1 -2,3.3 -5,7.6 -6.6,9.5 l -2.9,3.4 1.5,-5.8 c 0.8,-3.1 2.1,-8.3 2.9,-11.5 1.9,-7.4 1.9,-21.2 0,-30.4 -3.4,-16.2 -4.7,-33.3 -5.2,-69.8 l -0.5,-36.5 25.3,-25.9 c 14,-14.2 30.3,-30 36.4,-35.1 11.5,-9.6 17.7,-16.7 21.6,-24.79997 2.9,-6 3.4,-5 4.3,10.29997 z m -371.6,-5 c 6.6,9.9 8,11.4 19.7,20.8 5.5,4.4 21.4,19.5 35.4,33.7 l 25.4,25.6 -0.6,38.2 c -0.6,38.8 -1.3,49.4 -4.8,67 -3.1,15.9 -2.1,27.8 3.8,48.2 0.5,1.8 0.4,1.8 -1.1,0.6 -1,-0.8 -2.7,-3.3 -3.8,-5.5 -2.3,-4.6 -6.7,-11.1 -29.3,-44.1 -39.8,-58 -44.6,-66.7 -51.9,-93.1 -6.2,-22.6 -6.5,-35.5 -1.6,-69.2 1.1,-7.3 2,-16.8 2,-21.1 0,-6.69997 0.6,-9.89997 1.6,-8.79997 0.1,0.1 2.5,3.6 5.2,7.69997 z"      inkscape:label="External Oblique" />
  <path      id="flexors" 	             style="display:inline;stroke-width:0.1"                                  d="m 127.41541,813.95183 c 0,0.9 2.4,11.3 5.4,23 6.1,23.5 9.8,41.8 15,73.2 12.6,75.6 13.9,121.89997 4.6,159.49997 -12.3,49.1 -28.8,88.3 -51.7,122.6 -12.499995,18.8 -29.399995,32.9 -50.699995,42.2 l -2.9,1.3 0.7,-3.3 c 2.3,-11 4.7,-31 16.6,-139.8 5.4,-48.9 9.5,-84.2 13,-111.99997 1.7,-13.4 4.5,-25.9 7.5,-33.5 3.3,-8.3 18.099995,-38.2 23.699995,-47.8 5.1,-8.7 6.9,-18.3 9.7,-51.7 1.2,-13.5 2.4,-27.6 2.8,-31.3 0.4,-4.2 1.2,-7.5 2.2,-8.4 1.4,-1.4 1.7,-1.3 2.8,1.3 0.7,1.6 1.2,3.7 1.3,4.7 z m 759.6,-2.7 c 0.6,2.1 1.9,14.7 2.8,27.9 1.9,26.5 3.8,42.4 6.1,50 0.8,2.7 5.1,11.7 9.5,20 18.3,34.2 22.4,45.5 26,71.5 2.3,16.9 8.5,69.59997 11,93.99997 0.6,5.2 1.7,15.1 2.5,22 0.8,6.9 2.6,23.3 4,36.5 6.7,62.2 10.6,94.6 12.2,100.4 0.6,2.3 -0.1,2.1 -10.2,-3.3 -12.8,-6.8 -23.7,-14.7 -30.5,-22.4 -6.4,-7.1 -18.2,-24.2 -24.7,-35.7 -21.2,-37.3 -40.5,-95.4 -44.4,-133.5 -1,-9.8 -0.6,-52.69997 0.5,-61.49997 0.2,-1.1 0.6,-4.9 1,-8.5 2.9,-25.4 6.8,-52.4 10.6,-72.5 7.5,-39.7 8.5,-44.4 13.5,-62 1.4,-5 3,-11.3 3.5,-14 2.7,-13.9 4.4,-16.3 6.6,-8.9 z m -70.7,119.4 c 13.2,16.4 24.9,33.3 28.7,41.4 2.2,4.9 2.3,5.3 1.7,30.99997 -0.4,17 -0.2,30.3 0.6,38.3 2.9,30 18.5,80.2 35.7,115.1 6.9,13.9 20.9,37.3 28,46.7 9.9,13.2 28.2,27.1 43.4,33.1 3.9,1.5 7.5,3.2 8,3.9 0.5,0.6 2.8,5.6 5.1,11.1 2.2,5.4 9.2,20.7 15.4,33.9 16.7,35.5 21.09999,48.2 20.09999,57.5 -1.3,13.5 -16.39999,43.6 -39.19999,78.1 -12.2,18.6 -14.6,20.9 -21.5,20.9 -3.5,0 -4.9,-0.4 -4.9,-1.4 0,-0.8 5.3,-12.1 11.8,-25.3 12.8,-25.9 17.7,-39 17.7,-46.8 0,-4.4 -0.6,-5.9 -5,-12 -6.5,-9.2 -26,-28.6 -31,-30.9 -3.5,-1.7 -4.3,-1.8 -8,-0.5 -5.8,2 -6.5,5.1 -7.4,31.1 -0.7,21 -0.8,21.9 -3.1,24.3 -3.2,3.4 -7.2,3.3 -10.3,-0.4 -2.9,-3.5 -4.3,-9 -5.7,-23.1 -0.6,-5.8 -2,-14.3 -3.2,-19 -2.7,-10.9 -2.8,-20.8 -0.4,-28 1,-3 5,-11.3 8.9,-18.4 9.5,-17.3 12,-26.4 12.1,-44.1 0.1,-17.4 -1.4,-21.7 -23.5,-69.7 -6.6,-14.2 -11.9,-26 -11.9,-26.2 0,-1.2 -29.1,-65.2 -37.1,-81.4 -20.9,-43 -32.7,-85.69997 -38.4,-139.79997 -1.8,-17.3 -1.9,-18.4 -0.2,-16.4 0.7,0.9 6.8,8.5 13.6,17 z m -609.8,-4.8 c -6.3,60.1 -18.2,102.99997 -41.1,148.69997 -3.7,7.5 -7.9,16.3 -9.3,19.6 -1.4,3.3 -5,11.3 -8.1,17.9 -3.1,6.5 -5.6,12 -5.6,12.2 0,0.5 -6.2,14.1 -13.9,30.7 -2.3,4.9 -6.8,15 -10,22.5 -3.2,7.6 -7.4,17.1 -9.3,21.2 -8.8,19 -12.899995,31 -13.899995,40.2 -1,9.8 -0.1,21.6 2.5,31.5 2.1,8.2 3.699995,11.7 9.299995,20.9 5.7,9.3 6.9,11.9 9.4,19.9 2.4,7.7 2.4,16.7 0,23.6 -1,3 -2.6,12 -3.5,19.9 -2.1,17.7 -2.9,21.1 -6.2,25 -3,3.5 -7.199995,4 -9.799995,1.1 -2.3,-2.5 -3.5,-12.2 -3.6,-27.5 0,-16.9 -1.4,-23.9 -5.3,-27.2 -3.7,-3.2 -6.9,-2.8 -13.8,1.7 -8.9,5.7 -31.1,30.8 -32.6,36.8 -1.6,6.5 5.3,25.2 20.3,55 5.7,11.2 10.1,20.8 9.8,21.2 -1,1.6 -8.6,0.9 -11.8,-1 -3.5,-2.2 -5,-4.2 -14.5,-18.1 -15.3,-22.7 -32.1,-53.8 -37.2000002,-69 -3.7,-11.2 -3.6,-16.2 0.7,-28.1 2.8000002,-7.7 11.7000002,-28.2 18.6000002,-42.9 5.6,-11.9 15.3,-33.8 16.9,-38.2 1.1,-3.2 2,-4 5.9,-5.3 5.5,-1.8 20.2,-10.1 27.4,-15.4 15.8,-11.8 31.099995,-33.2 48.699995,-68.3 12.5,-24.9 25.7,-63.5 32.5,-95.3 2.8,-12.8 2.8,-13.5 2.9,-49 0.1,-27.99997 0.4,-36.59997 1.5,-38.49997 3.6,-6.8 15.3,-23.6 25.7,-36.8 13,-16.6 17.6,-21.7 18.1,-20.3 0.2,0.6 -0.1,5.7 -0.7,11.3 z"      inkscape:label="Flexors" />
  <path      id="brachialis" 	         style="display:inline;stroke-width:0.1"                                  d="m 144.41541,653.35183 c 0,3.8 4.1,43.1 6.7,64.5 0.6,4.9 -0.8,10 -14.6,52.3 -6.3,19.2 -12.7,33.9 -14.3,32.9 -0.6,-0.4 -0.7,-2.4 -0.4,-4.8 0.3,-2.2 1.1,-13.6 1.6,-25.1 3,-60.5 5.1,-75.8 13.9,-103 1.6,-5 3.4,-10.9 4,-13.3 0.7,-2.3 1.6,-4.2 2.1,-4.2 0.6,0 1,0.3 1,0.7 z m 722.3,1.5 c 0.2,1.3 2.5,8.7 5.1,16.6 8.4,25.9 10.5,41.5 13.6,99.7 0.5,11 1.3,22.6 1.6,25.7 0.3,3.5 0.1,5.8 -0.5,5.8 -3.5,0 -14.7,-31.2 -26.6,-73.9 -2.6,-9.3 -2.6,-9.3 -1,-19.5 1.3,-8.9 3.1,-25.9 5.2,-49.4 0.6,-7.2 1.6,-9.2 2.6,-5 z"      inkscape:label="Brachialis" />
  <path      id="serratus_anterior"      style="display:inline;stroke-width:0.1"                                  d="m 271.21541,747.95183 c 5.6,11 17,25.9 25.3,33 7.7,6.6 15.8,9.8 27,10.7 10.9,0.9 33.9,-0.2 43.8,-2 6.1,-1.1 6.4,-1 10.2,1.6 2.1,1.4 5.3,4.7 7,7.3 2.8,4.2 3,5.2 2.7,11.2 -0.3,5.4 -0.9,7.5 -3.3,11 -5.4,7.7 -12.5,14.7 -16.3,16.1 -6,2.1 -32.1,1.7 -40.2,-0.6 -13.2,-3.9 -22.7,-10.2 -31.1,-20.7 -8.4,-10.6 -13.3,-19.9 -19.4,-36.5 -2.9,-8.2 -7.71998,-22.9601 -11.01998,-30.4601 -3.2,-7.4 -3.6318,-19.5933 -2.94279,-21.1923 0,0 1.04736,1.3982 8.26277,20.5524 z m 473.47275,-19.1512 c 0,0 -10.67275,44.4512 -13.77275,53.8512 -5,15.4 -14.9,30.7 -26.9,41.7 -11.5,10.5 -26.5,14.8 -49.2,14.2 -10.3,-0.4 -12.4,-0.7 -15.6,-2.7 -4.3,-2.7 -14.2,-14.5 -16.3,-19.5 -3.4,-8.1 -1.1,-16.3 6.1,-22.8 6,-5.3 5.3,-5.1 18.1,-3.3 21.6,3 46.2,2 54.8,-2.3 2.6,-1.3 12,-8.9 16.5,-13.3 7,-6.8 17.15195,-27.3761 21.65204,-34.456 4.51662,-11.346 4.62071,-11.3952 4.62071,-11.3952 z m -458.37275,-25.2488 c 3.9,10.4 11,24.2 16.1,31.4 10.5,14.6 29.7,20.7 68,21.4 11.8,0.2 26.5,0 32.5,-0.5 6.1,-0.5 11.9,-0.6 13,-0.2 1.7,0.6 1.3,1 -2.5,3 -2.5,1.2 -10.4,6.2 -17.6,11.1 -19.1,12.8 -23.3,14.8 -35,16.5 -5.4,0.8 -17.1,1.5 -25.9,1.5 -14.9,0.2 -16.4,0 -22,-2.3 -9.4,-3.8 -13.9,-7.2 -21.5,-16 -9,-10.5 -15.6,-20.5 -18.8,-28.2 -2.2,-5.4 -2.4,-7.5 -2.4,-18.6 0.1,-6.9 0.8,-17.5 1.6,-23.5 0.8,-6.1 1.8,-13.9 2.2,-17.5 1.3,-13 2.3,-12.9 5.9,1 1.8,6.9 4.7,16.3 6.4,20.9 z m 448.5,-22.4 c 0.4,3.8 1.4,11.7 2.3,17.5 0.9,5.8 1.7,16.6 1.7,24 0.1,12.7 -0.1,13.8 -2.7,19.4 -8,17.2 -24.5,36.3 -36,41.6 -8.7,4.1 -21,5.4 -39.1,4 -22.7,-1.8 -25.4,-2.8 -49.4,-18.7 -7.9,-5.2 -16.2,-10.2 -18.5,-11.2 -4.1,-1.7 -3.5,-1.8 31.3,-1.7 37.7,0 42.1,-0.4 58.7,-5.3 19.6,-5.9 31.5,-21.7 42.7,-57.1 1.4,-4.1 2.7,-9.1 3.1,-11 0.4,-1.9 1.4,-5.5 2.3,-7.9 1.9,-5.3 2.6,-4 3.6,6.4 z"      inkscape:label="Serratus Anterior" />
  <path      id="biceps_brachii" 	     style="display:inline;stroke-width:0.1"                                  d="m 252.21541,609.15183 c 1.8,2.8 3.5,5.9 3.8,7.1 0.3,1.2 -2.5,8.6 -7.7,20 -28.2,61.9 -46.6,112.9 -52.5,144.9 -0.8,4.4 -1.9,9.8 -2.4,12 -0.5,2.2 -2.1,10.3 -3.5,18 -6.9,37.3 -11.2,56.1 -15.3,66.7 -2.4,6.3 -2.8,6.8 -5.7,6.8 -2.4,0 -4.3,-1.4 -10,-7.4 -9.3,-9.7 -13.6,-17.3 -19,-33.5 -4.3,-13.1 -10.5,-37.1 -10.5,-40.8 0,-1.5 3.2,-10.3 8.6,-23.3 1.8,-4.3 9.1,-27.7 15.8,-50.5 2.8,-9.4 11.1,-34.5 12.6,-38 0.5,-1.1 2.1,-5.2 3.6,-9 13.5,-34.9 30.9,-54.3 65.3,-72.7 5.8,-3.1 11.3,-5.5 12.1,-5.4 0.8,0 3,2.4 4.8,5.1 z m 520.9,0.5 c 28.3,14.8 46.8,32.5 58.5,56.1 7.3,14.8 14.9,35.3 23.7,64.4 2.9,9.3 5.6,18.1 6.1,19.5 0.5,1.4 2.3,7.2 4,13 4.1,13.6 7.1,21.9 10.9,30.3 1.7,3.8 3.1,8.2 3.1,9.9 0,4.4 -5.3,25.5 -10.4,41.1 -5.9,18.1 -14.2,31.2 -24.6,38.9 -7.3,5.3 -7.1,5.4 -12.3,-12.6 -4.1,-14.3 -7.6,-30.7 -14.7,-68.1 -2.8,-15.2 -8.8,-41.4 -11.5,-51.1 -7.1,-24.8 -23.7,-66.7 -48.4,-122.3 l -5,-11.3 2.6,-5.2 c 2.4,-4.7 5.1,-8.6 6,-8.6 0.3,0 5.6,2.7 12,6 z m -508.5,21.1 c 8.8,17.7 10,26 6.4,44.9 -3.4,17.9 -5.49401,34.482 -5.59401,50.382 -4.46005,2.2082 -4.38557,-5.47 -12.70299,7.422 -0.8,1.3 -1.403,5.796 -1.703,9.696 -1.3,13.8 -6.2,41.4 -10.2,57.5 -3.4,13.4 -11.6,38.8 -14.8,45.5 -6.9,14.7 -23.6,34.4 -33.5,39.4 -4.2,2.2 -14.4,4.2 -16,3.1 -0.7,-0.4 0.2,-4.3 2.5,-10.8 3.7,-10.9 6.7,-22.9 11.4,-46.7 1.6,-8.3 3.6,-18.4 4.5,-22.5 0.8,-4.1 2.9,-14.3 4.5,-22.5 3.9,-20.1 7,-31.9 13.5,-51 8.4,-24.9 16.9,-46.1 36,-90 4.5,-10.5 8.5,-19.8 8.9,-20.8 1,-3.1 2.9,-1.4 6.8,6.4 z m 490.6,3.6 c 2.8,6.5 8.6,19.9 13,29.8 9.1,20.6 22.8,55.7 29.5,75.5 6.2,18.3 10.3,35.9 19.7,86 5.3,28.6 10.3,48.3 15.6,61.4 0.7,1.7 0.3,1.8 -5.2,1.4 -7.9,-0.6 -14.4,-3.9 -22.2,-11.2 -12.9,-12.1 -23.1,-29 -29,-48.1 -10,-32.5 -14.6,-54 -19.1,-89.8 -0.9,-7.1 -13.7066,-13.6004 -13.7066,-13.6004 0,0 1.64562,2.3773 -5.1934,-45.0996 -3,-17.5 -3.2,-23.6 -0.8,-33 2.4,-9.3 9.6,-25 11.6,-25 0.4,0 3,5.3 5.8,11.7 z"      inkscape:label="Biceps Brachii" />
  <path      id="pectoris_major" 	     style="display:inline;stroke-width:0.1"                                  d="m 459.91541,497.15183 c 20.4,2.4 23.2,3.6 27.3,11.7 3.5,7.1 4.3,13.5 5.2,41.8 0.5,14.6 1.1,27.4 1.4,28.5 0.6,2.1 4.8,49.1 6.6,73 0.5,7.7 1,21.3 1,30.1 0,14.3 -0.2,16.7 -2.2,21.5 -6.2,15.3 -21,29.9 -38,37.3 -18.6,8.1 -52.5,12.3 -91.3,11.3 -40.6,-1.1 -57.2,-7.6 -68.6,-26.8 -8.3,-13.9 -17.2,-39.5 -22.9,-65.8 -4.5,-20.2 -8.1,-28.6 -23.7,-54.4 -6.1,-10.1 -8.6,-18.1 -7.7,-24.4 1.5,-10.3 15,-25.8 32.4,-37.5 12,-8 45.2,-24.5 62.7,-31.1 18.6,-7.1 45.3,-13.3 69.3,-16 9.1,-1 36.7,-0.5 48.5,0.8 z m 156,1.9 c 33.4,5.7 55,13.1 89.7,30.8 20.1,10.3 27.7,15.6 40.4,28.3 15.3,15.2 18.9,23.3 15,34.1 -0.7,2.2 -5.5,10.9 -10.6,19.4 -11.5,19.2 -14.4,25.2 -17,36 -1.1,4.7 -3.1,13.2 -4.5,19 -5.9,25 -13.8,47.1 -21.1,59.1 -4.1,6.8 -12.5,15.4 -17.6,18 -4.6,2.3 -15.9,5.4 -26.3,7.1 -12.4,2 -59.5,1.7 -77,-0.6 -16.6,-2.1 -28.1,-4.6 -36.6,-8.1 -16.5,-6.7 -31.3,-19.8 -38.4,-34 l -4,-8 -0.3,-16.5 c -0.5,-21.1 1.2,-44.9 7.4,-105.7 0.8,-8.4 1.9,-25.5 2.4,-38 0.9,-25.3 1.8,-29.5 7.3,-35.6 2,-2.1 4.9,-4 7.5,-4.6 17.2,-4.7 58.3,-5 83.7,-0.7 z"      inkscape:label="Pectoris Major" />
  <path      id="deltoid" 	             style="display:inline;stroke-width:0.1"                                  d="m 256.71541,456.15183 c 6.2,1.3 21.6,4.5 34.2,6.9 31.6,6.2 49.1,10.5 76,18.7 32.4,9.9 33.8,10.4 34.2,11.5 0.2,0.5 -4.3,1.5 -9.9,2.2 -11.2,1.3 -35.7,7.4 -48.3,12 -18.7,6.8 -50.2,22.3 -63.8,31.4 -12.6,8.4 -29.1,25.1 -33.6,34 -3,6 -3.3,7.4 -2.9,13 0.2,3.5 1.3,8.1 2.3,10.2 1.4,2.8 1.6,4.1 0.7,4.4 -5,1.6 -20.6,10.2 -29.7,16.2 -12.5,8.3 -27.7,22.9 -34.5,32.9 -5.9,8.8 -15.9,31 -21,46.6 -2.4,7.1 -4.5,13.2 -4.7,13.5 -1,1.1 -2.3,-2.9 -2.3,-7.5 0,-2.8 -1.2,-14.5 -2.6,-26 -4.6,-37.8 -4.2,-61 1.7,-98.5 4.1,-26.2 7.9,-40.6 13.9,-53.7 10.1,-21.8 25.8,-39.1 51,-56 7.9,-5.4 24.6,-14.2 26.8,-14.3 0.7,0 6.3,1.1 12.5,2.5 z m 514.4,0.3 c 32.1,15.9 57.1,39 70.1,64.9 10,19.9 17.3,57.5 20.2,103.8 0.9,14.9 -0.2,29.9 -4,55.8 -0.6,3.7 -1.3,10.9 -1.6,16 -0.9,15.8 -1,15.8 -7.4,-1.3 -13,-35 -19.8,-46.9 -36,-63 -11.3,-11.4 -21.7,-18.8 -37.3,-26.9 -5.4,-2.7 -10.2,-5.1 -10.8,-5.3 -0.7,-0.2 -0.5,-2.4 0.6,-6.8 3.1,-11.8 0.6,-20.6 -9,-32.3 -10.1,-12.2 -26.1,-23.8 -49.8,-36.1 -29.8,-15.5 -59.8,-25.7 -88.2,-30.2 -4.9,-0.7 -9.4,-1.4 -10,-1.4 -2.3,-0.1 2.5,-2.2 10.5,-4.6 4.7,-1.4 13.9,-4.3 20.5,-6.4 22.8,-7.4 57.2,-15.5 101,-23.9 8.8,-1.7 17.4,-3.5 19,-4.1 3.7,-1.1 7.4,-0.6 12.2,1.8 z"      inkscape:label="Deltoid" />
  <path      id="trapezius" 	         style="display:inline;stroke-width:0.1"                                  d="m 405.81541,403.85183 c -8.1,13.5 -21.9,30.4 -29.1,35.5 -17.6,12.5 -53.1,11.3 -64.2,-2.1 -1.1,-1.3 -0.7,-1.6 2.1,-2 1.8,-0.3 7.8,-1.2 13.3,-2.1 17.1,-2.7 41.5,-11.7 65.2,-24.1 6.8,-3.5 12.5,-6.4 12.9,-6.4 0.3,0 0.2,0.6 -0.2,1.2 z m 216.1,8.3 c 25,12.6 48.9,20.5 67,22.2 4.4,0.5 8,1.2 8,1.8 0,1.9 -9.8,7.5 -16.9,9.7 -13.1,4.1 -32.7,2.4 -43.1,-3.7 -7.4,-4.3 -16.1,-13.3 -23.8,-24.5 -7.4,-10.7 -8.6,-13 -7,-13 0.5,0 7.5,3.4 15.8,7.5 z"      inkscape:label="Trapezius" />
  <path      id="sternocleidomastoid" 	 style="display:inline;stroke-width:0.1"                                  d="m 587.01541,335.85183 c -2.1,25.8 -4.4,36.1 -11.3,51.7 -10.3,23.3 -17.4,36.4 -39.1,72 -12.4,20.4 -17.2,26.8 -21.9,28.7 -4.1,1.8 -6.1,0.7 -4.5,-2.3 1.4,-2.5 25,-74 43.1,-130.4 2.7,-8.6 5.5,-16.7 6.2,-18.1 0.6,-1.5 6.9,-7 14,-12.3 7.1,-5.4 13.3,-10.2 13.6,-10.9 1.5,-2.2 1.4,2.5 -0.1,21.6 z m -151.6,-10.5 c 7.4,6 14,11.9 14.6,13.3 0.7,1.4 5.7,16.4 11.2,33.5 5.5,17 15.7,48.4 22.6,69.6 6.9,21.2 12.6,39.1 12.6,39.7 0,0.6 0.8,2.4 1.7,4.1 1,1.6 1.5,3.3 1.1,3.6 -1.5,1.5 -8,-1.9 -11.5,-6 -5.9,-7.1 -32.8,-51.8 -41.7,-69.5 -18.8,-37.2 -21.2,-45 -24,-77.7 -1.8,-21 -1.9,-21.3 -0.8,-21.3 0.4,0 6.8,4.8 14.2,10.7 z m 150.9,55.6 c 0.1,5.5 2.2,9.6 7.6,14.7 3.3,3.2 6.1,7.5 9.7,15 l 5.1,10.5 0.9,20 c 0.4,11 0.7,20.6 0.6,21.3 -0.5,2.4 -12.8,-6.7 -23.3,-17.3 -9.3,-9.3 -20.5,-23.8 -20.5,-26.7 0,-0.6 2.9,-7.3 6.4,-14.7 3.4,-7.5 7.6,-17.4 9.2,-21.9 2.9,-8.7 4.2,-9 4.3,-0.9 z m -159,2.3 c 1.3,3.2 5.3,12.4 8.8,20.3 3.5,7.9 6.2,14.9 5.9,15.7 -1.1,2.9 -12.7,19.1 -16.8,23.5 -4.5,4.8 -19.1,16.9 -22.9,18.9 -1.7,1 -2.3,0.9 -3,-0.1 -1.1,-1.8 -1.1,-2.9 0.2,-23.3 0.8,-12.4 1.5,-18.1 2.8,-20.6 5.1,-10.3 11.7,-20.9 15.8,-25.3 4,-4.3 4.5,-5.3 4,-8.2 -0.7,-4.1 0.2,-7.7 1.7,-7.2 0.6,0.2 2.2,3 3.5,6.3 z"      inkscape:label="Sternocleidomastoid" />
  <path      id="rectus_abdominis" 	     style="display:inline;stroke-width:0.1"                                  d="m 496.61541,842.85183 c 3,2.4 5.2,16.1 5,31.2 -0.3,17.7 -1.4,25.3 -4.4,28.3 -3.4,3.3 -45.7,17.4 -67,22.3 l -9.7,2.2 -3.1,-2.2 c -5.1,-3.6 -10,-15.4 -12.1,-29.4 -2.1,-13.7 0.6,-23 8.4,-28.7 16.4,-11.9 36.9,-20.4 57.7,-23.8 8.6,-1.4 23.4,-1.3 25.2,0.1 z m 39.5,-0.2 c 9.7,1.3 21.7,4.3 30,7.6 9,3.6 27,14.5 31.7,19.1 6.4,6.4 6.9,8.2 6.3,20.8 -0.7,16.4 -6.7,32.4 -13.2,35.3 -3.1,1.5 -9.6,0.4 -25.5,-4.4 -6.9,-2 -13.8,-4 -15.5,-4.4 -11.5,-2.9 -35.2,-11.7 -37.7,-13.9 -3.8,-3.5 -4.8,-9.6 -4.8,-28.4 0,-18.1 1.3,-26.6 4.5,-30.2 2.2,-2.2 3.1,-2.5 9.7,-2.5 4,0 10.6,0.5 14.5,1 z m -44.6,82 c 1,0.6 2.7,2.5 3.6,4.3 1.6,2.8 1.8,6 1.8,24.2 0,28.7 1,27.5 -28,34.5 -12.1,2.9 -20.6,5.7 -29.3,9.6 -6.8,2.99997 -13.1,5.39997 -14.2,5.39997 -5.2,0 -7.2,-2.99997 -9,-13.99997 -3.2,-18.9 3.6,-41.2 15.8,-52.2 5.4,-4.9 13.1,-8.8 21.7,-10.9 8,-2 34.3,-2.6 37.6,-0.9 z m 60.1,0.5 c 8.1,1.7 11.8,2.9 16.3,5.3 12.4,6.6 22.3,21.5 24.5,37.3 1.1,7.6 0.6,21.5 -1.1,28 -0.9,3.4 -4.4,6.89997 -6.9,6.89997 -0.6,0 -7.5,-2.5 -15.3,-5.59997 -7.8,-3.2 -19.8,-7 -26.7,-8.7 -6.9,-1.6 -14.1,-3.4 -16.1,-3.8 -5.7,-1.4 -10.2,-5 -12.8,-10.3 -2.3,-4.6 -2.5,-6 -2.5,-21 -0.1,-13.3 0.2,-16.9 1.7,-20.8 3.1,-8 4.9,-8.8 19.3,-8.8 7.1,0 15.4,0.6 19.6,1.5 z m -60.1,78.99997 c 2.5,0.9 5.7,2.7 7.2,4.1 l 2.7,2.5 v 159.5 159.4 l -2.7,-0.6 c -3.9,-0.9 -12.1,-5.6 -17,-9.8 -13,-11.2 -29.1,-54.5 -53.3,-143.1 -8.1,-29.8 -8.9,-34.8 -10.2,-71.2 -1.3,-34.2 -0.1,-75.5 2.3,-83.8 1.7,-5.8 6.4,-9.8 14,-11.8 24.6,-6.3 47.6,-8.4 57,-5.2 z m 68.2,1.9 c 7.5,1.4 15.3,3.2 17.2,4 5,2.1 10.3,6.7 11.4,9.8 3.6,10.1 4,95.4 0.6,119.5 -3.6,26.4 -28.9,113.2 -42.7,146.8 -5.7,13.8 -12.4,26.1 -17.1,31.2 -4.8,5.2 -14,11 -18.2,11.5 l -3,0.3 -0.3,-158 c -0.1,-86.9 0,-158.9 0.3,-160.1 0.5,-2.1 6.4,-6.7 10.1,-7.7 4.5,-1.4 28.4,0.2 41.7,2.7 z m -65.9,-251.49997 c 5.6,5.2 8.6,25.8 6.8,45.9 -2.2,24 -5.9,27.5 -36.2,34.2 -8.8,1.9 -20.2,5.3 -29,8.7 -31.3,12 -29.8,11.6 -33.4,9.5 -1.7,-0.9 -3.9,-3.3 -4.8,-5.2 -2.5,-5.2 -4.1,-20 -3.5,-32.5 0.4,-9.7 0.9,-12.1 4.2,-20 4.6,-11.3 7.6,-16.6 13.4,-23.4 6,-7.1 11.2,-10.3 24,-14.6 14.1,-4.7 19.5,-5.4 39.3,-5.2 16.2,0.2 16.7,0.3 19.2,2.6 z m 61.9,-1.4 c 16.7,2.2 31.5,8 39,15.3 7.1,6.9 14,18.7 18,30.8 1.8,5.8 2.2,9.1 2.2,20.9 0,18.2 -1.7,26.9 -6.1,31.2 -3.8,3.9 -5.6,3.8 -16.9,-1 -17.3,-7.2 -34.1,-12.7 -47.1,-15.6 -23.1,-5 -29.6,-8.2 -32.8,-16.2 -4.8,-12 -6,-34 -2.6,-49.2 2.5,-11.3 3.7,-13.8 8,-15.9 4.5,-2.3 22.1,-2.4 38.3,-0.3 z"      inkscape:label="Rectus Abdominis" />
</svg>
