<?xml version="1.0" encoding="UTF-8" standalone="no"?>
<svg viewBox="0 0 987.05829 2523.5535" class="svg-object" id="body_back" xmlns="http://www.w3.org/2000/svg" xmlns:inkscape="http://www.inkscape.org/namespaces/inkscape">
	<path      id="body"               style="display:none;stroke-width:0.1"                                  d="m 501.69985,0.25742687 c -7.83337,-0.5311 -15.28183,-0.2182 -23.24268,0.7339 -15.92169,1.90430003 -32,6.70050003 -45,14.50050013 -21.6,12.9 -38.09941,35.1993 -44.39941,59.7993 -5.7,22.6 -10.89971,74.501203 -11.69971,118.201203 -0.6,31.4 0.3003,47.9989 3.3003,62.8989 1.8,9.3 9.20009,25.0004 17.60009,37.4004 l 6.09961,9.0996 1.40039,27.6006 c 0.8,15.1 1.29864,31.9004 1.09864,37.4004 l -0.29883,9.7998 -4.40039,3.8994 c -10.3,8.8 -36.09981,21.4008 -60.79981,29.8008 -12.3,4.2 -18.20029,5.3991 -45.30029,9.5991 -49.6,7.7 -85.30029,24.5004 -114.30029,53.9004 -28.2,28.5 -38.09922,58.7001 -43.69922,133.1001 -1.3,17.9 -3.70108,31.6995 -6.10108,34.9995 -0.4,0.5 -2.29892,6.201 -4.39892,12.501 -7.8,24.1 -9.50049,37.7 -13.00049,100.5 -1.4,26.3 -4.20059,64.0995 -6.60059,88.9995 -2,21.5 -2.49931,23 -13.299311,42 -5.9,10.2 -17.5999,35.5005 -19.8999,43.0005 -2.2,7 -3.39971,13.6 -5.69971,31.5 -1.8,13.9 -9.40039,80.29897 -13.40039,116.49897 -0.9,7.7 -4.1001,36.6008 -7.1001,64.3008 -5.5,49.8 -6.90049,59.4001 -10.00049,68.6001 -1.7,4.9 -8.9,21.1996 -24,54.0996 -15.7000001,34.3 -17.2994101,42.4997 -11.3994101,59.6997 5.4,15.9 16.9999001,37.4998 33.3999001,62.2998 13.1,19.7 17.7,24.8009 24,26.4009 6.4,1.6 8.9,1.3999 12,-1.1001 4.5,-3.5 3.30068,-7.6005 -10.29932,-35.5005 -13.1,-26.9 -17.70078,-38.8991 -16.30078,-42.5991 3.5,-9.1 28.9001,-35.7012 34.1001,-35.7012 3.6,0 4.30059,3.7005 5.10059,25.0005 0.7,22.3 1.4999,26.0004 6.3999,29.9004 5.5,4.3 10.299411,3.9995 15.899411,-1.0005 4.5,-3.9 6.19951,-9.4004 7.99951,-25.4004 0.8,-7.2 2.4002,-16.7995 3.7002,-21.4995 3.9,-15.2 1.7,-27.8996 -7.5,-43.5996 -2.6,-4.3 -5.99961,-10.5999 -7.59961,-13.8999 -5.300001,-10.8 -7.699611,-33.5 -4.599611,-43.5 3.200001,-10.1 13.598931,-35.801 25.398931,-62.001 23.2,-52.1 25.90019,-57.799 41.20019,-89.499 16.9,-35 21.00098,-45.801 29.00098,-77.00097 5.3,-20.6 7.49902,-33.4995 11.49902,-66.4995 2.9,-24.2 2.20098,-21.1 15.50098,-64.5 13.7,-44.6 16.79912,-55.1996 20.09912,-69.0996 3.8,-16.3 6.90088,-34.9005 6.90088,-41.5005 0,-7.5 1.3,-9.0002 3,-3.7002 0.8,2.4 3.1998,8.6003 5.2998,13.8003 2.1,5.2 6.59942,17.3004 9.89942,26.9004 3.3,9.6 7.70088,21.499 9.90088,26.499 2.5,5.7 4.7,13.2006 6,20.1006 1.1,6 3.1,15.5 4.5,21 1.3,5.5 2.7999,15.1995 3.3999,21.4995 3.1,35.7 4.09951,48.3005 4.99951,65.5005 1.3,24 1.69971,27.9 4.19971,39 2.5,10.7 2.10029,23.3 -1.19971,43.49997 -1.6,9.3 -2.20049,18.5 -2.50049,36 -0.4,21.5 -0.59892,24.2006 -2.89892,32.1006 -3.4,11.7 -7,20.3987 -18,44.1987 -14.4,31 -16.8001,37.3012 -22.1001,58.2012 -8.3,32.3 -13.5,74.5992 -13.5,109.6992 0,10.4 -0.40117,15.7996 -1.20117,16.5996 -0.9,0.9 -0.9,2.1014 0,4.9014 0.7,2.4 1.40068,17.7993 1.70068,40.2993 0.6,37.6 1.30049,57.8 4.00049,114 3.1,65.6 4.59892,80.7 13.39892,127.5 3.7,19.9 8.80108,49.9005 10.60108,62.5005 7.2,50 10.5,83.8 10.5,106.5 0,6 -1.00059,18.3995 -2.10059,27.4995 -1.7,13 -2.30039,25.7005 -2.90039,59.5005 l -0.7998,42.999 -3.49951,15 c -1.9,8.2 -5.79971,24.001 -8.69971,35.001 -9.6,37 -12.7002,51.8 -15.7002,75 -1.5,11.8 -1.80029,21.6995 -1.80029,61.9995 0,40.7 2.20049,146.6 4.00049,195 0.3,7.7 0.59912,25.4995 0.59912,39.4995 0.2,22.3 0.60098,37.101 2.00098,68.001 l 0.3999,7.5 -4.70069,0.7002 c -17.4,2.4 -23.0999,8.1998 -22.8999,23.2998 0.1,12.4 2.1003,21.3 10.8003,48 3.5,10.9 4.39941,14.8996 3.89941,18.0996 -1.4,10.4 3.5998,24.8002 11.2998,32.2002 9.2,9 25.00059,13.799 42.60059,12.999 19.6,-0.9 30.09941,-10.6988 33.89941,-31.7988 3.8,-20.6 4.40059,-41.5005 2.10059,-65.5005 -1.7,-17.4 -1.89951,-32.5 -0.49951,-48 0.5,-6.1 1.39951,-20.0005 1.99951,-31.0005 2.3,-42.9 6.7001,-70.5997 14.6001,-92.6997 2.7,-7.4 14.2999,-33.8993 22.8999,-52.2993 13.1,-28 24.10029,-58.7 27.30029,-76.5 7.8,-42.1 9.19922,-55.8007 9.19922,-88.7007 0,-49.6 4.40078,-138.5003 7.30078,-147.3003 0.8,-2.5 4.29961,-11.6994 7.59961,-20.3994 11.1,-28.8 18.39951,-58.3006 21.49951,-86.1006 0.9,-7.7 2.50059,-26.6 3.60059,-42 3.9,-53.9 7.1999,-75.1996 16.8999,-111.0996 12.7,-46.9 21.8,-91.6004 24,-118.4004 0.5,-6.9 1.30069,-39.099 1.70069,-71.499 l 0.59912,-59.001 2.80078,-11.3994 c 2.6,-10.2 4.2998,-14.3005 5.2998,-13.0005 0.4,0.4 4.39932,18.4999 5.79932,25.8999 0.4,2.5 0.80088,23.2005 0.90088,46.0005 0.2,74 1.1999,89.9995 7.8999,126.4995 3.5,19.5 14.69961,66.0005 21.09961,88.0005 6.2,21.4 10.60049,55.1995 14.50049,112.9995 1.7,25.2 3.3001,37.701 7.1001,56.001 4.1,19.9 12.59873,47.6996 20.19873,66.0996 5.7,13.7 6.10068,16.7999 9.20068,72.3999 0.5,9.6 1.40059,40.8995 2.10059,69.4995 1.1,51.7 1.59931,59.0005 5.79931,86.5005 4.9,31.5 13.99961,58.7 34.59961,103.5 18.4,40.2 22.60039,51.7005 26.90039,73.0005 3.1,16 5.1001,33.999 7.1001,63.999 0.8,12.6 1.99971,30.5002 2.69971,39.7002 1,14.7 0.8998,18.8005 -0.7002,35.5005 -3.1,30.2 -1.99892,56.5003 3.10108,76.8003 2.9,11.5 10.79882,20.0991 21.29882,23.0991 10.9,3.2 33.29991,0.9 43.89991,-4.5 6.9,-3.5 13.80127,-10.5993 17.30127,-17.7993 2.9,-6.1 3.29941,-7.9998 3.89941,-18.7998 0.6,-10.5 1.2998,-13.701 5.2998,-26.001 6.9,-21.2 9.20069,-31.4995 9.20069,-42.4995 0,-15.7 -3.59981,-19.9001 -20.29981,-23.6001 l -7.5,-1.6992 0.69873,-10.6011 c 0.3,-5.8 1.10108,-34.0001 1.60108,-62.6001 0.5,-28.6 1.39951,-67.1 1.99951,-85.5 4.3,-147.3 4.59971,-184.5995 1.19971,-210.4995 -2.7,-21 -6.3001,-40.4 -10.1001,-55.5 -1.6,-6.3 -5.39941,-21.2 -8.39941,-33 -9.9,-38.6 -9.7001,-36.9998 -10.1001,-80.2998 -0.3,-34 -0.6001,-39.8997 -2.6001,-53.6997 -5.1,-33 -2.00039,-77.9005 10.59961,-158.5005 3.5,-22.2 5.10039,-31.5995 10.40039,-58.9995 5.3,-27.6 7.89951,-54.0998 10.99951,-114.7998 2.8,-54.9 4.00049,-89.8012 4.00049,-121.2012 0.1,-20.5 0.4,-27.8994 1.5,-30.8994 0.9,-2.5 1.09951,-4.6001 0.49951,-5.6001 -0.5,-0.9 -1.3999,-14.2001 -1.8999,-29.6001 -1.2,-29.5 -2.2001,-39.4994 -7.1001,-66.8994 -6.5,-36.9 -10.59951,-50.301 -24.49951,-80.001 -9,-19.3 -10.69961,-23.0998 -15.09961,-33.7998 -8.7,-21.6 -8.70098,-21.3002 -9.50098,-50.2002 -0.5,-18.7 -1.29931,-29.7995 -2.79931,-39.4995 -3.4,-21.49997 -3.70078,-30.19997 -1.30078,-38.99997 2.6,-10 3.00117,-13 4.20117,-37.5 0.6,-11.6 1.69902,-27.1 2.49902,-34.5 0.8,-7.4 1.70098,-18.2 2.00098,-24 0.9,-15.5 2.3001,-26.2997 4.1001,-31.1997 0.8,-2.4 2.59902,-10.4008 3.99902,-17.8008 2.9,-16.2 2.80059,-15.999 6.60059,-23.499 1.7,-3.3 5.90029,-14.301 9.30029,-24.501 9.3,-27.1 17.39902,-48.3991 17.49902,-45.5991 0.1,4 5.70098,36.4996 8.00098,46.5996 2.6,11.4 9.49951,35.4 18.49951,64.5 13.6,43.9 15.3,50.2 16.5,61.5 4.6,44.4 10.30049,73.0007 20.50049,103.70067 4.9,14.7 7.69902,21.3993 18.99902,44.7993 4.3,8.8 10.3,21.6 13.5,28.5 3.2,6.9 7.40029,15.8995 9.30029,19.9995 21.2,45.6 40.7997,91.1011 44.6997,103.6011 3.5,11.6 2.2999,34.299 -2.6001,45.999 -0.9,2.1 -3.4001,6.4998 -5.60008,9.7998 -11.8,17.8 -14.89903,33.5001 -9.99903,50.6001 1.1,4.1 2.59922,12.2 3.19922,18 1.9,17.7 4.2002,24.701 9.70019,29.001 3.6,2.9 10.301,2.2999 14.001,-1.1001 5.1,-4.9 5.5999,-7.0005 6.3999,-29.5005 0.7,-21.2 1.5,-25.4004 4.5,-25.4004 2.3,0 15.8997,11.6009 22.1997,18.9009 8.1,9.3 12.1992,15.8 12.1992,19.5 0,6.4 -6.8998,23.5002 -20.2998,50.2002 -8.7,17.3 -9.5998,20.7999 -6.7998,24.3999 1.7,2.2 2.7,2.4998 7.5,2.2998 10.8,-0.4 14.4003,-3.6003 28.8003,-25.8003 22.8,-35.1 37.8003,-66.4997 37.8003,-79.1997 0,-4.6 -3.5004,-17.2001 -7.4004,-26.6001 -1.9,-4.6 -8.9006,-20.3003 -15.6006,-34.8003 -13.9,-30.2 -18.299,-42.2994 -20.499,-56.3994 -0.8,-5.5 -3.5,-28.701 -6,-51.501 -8.6,-80.4 -9.6006,-89.7 -12.6006,-115.5 -8.3,-72.29997 -10.7,-88.59987 -15,-99.39987 -2.6,-6.8 -5.9993,-13.5991 -23.7993,-48.5991 -4.7,-9.2 -5.2006,-11.0005 -6.6006,-22.0005 -1.8,-15 -5.09951,-55.6995 -6.49951,-81.4995 -2.5,-48.2 -4.50059,-74.1009 -6.60059,-86.4009 -2.1,-12.1 -6.69931,-29.9003 -10.29931,-39.3003 -4.7,-12.4 -6.10108,-19.1986 -7.60108,-38.5986 -5,-62.1 -11.8998,-90.7007 -27.7998,-114.2007 -9.3,-13.8 -26.79951,-30.9002 -42.49951,-41.2002 -18.7,-12.3 -45.20049,-23.1997 -68.50049,-28.1997 -5.4,-1.2 -18.69903,-3.5002 -29.49903,-5.2002 -28.9,-4.4 -40.60019,-8.2004 -69.70019,-22.4004 -17.7,-8.7 -27.00098,-14.5995 -29.00098,-18.4995 -1.8,-3.5 -1.99951,-26.0999 -0.49951,-55.8999 1.1,-21.1 0.49932,-19.3005 8.79932,-31.0005 6.1,-8.6 13.00068,-23.1 15.20068,-31.5 3,-11.6 4.00049,-27.1002 4.00049,-59.2002 0,-63.9 -7.80078,-123.199903 -19.30078,-145.899903 -12.6,-25.2 -35.31031,-43.4551 -62.49903,-50.3994001 -9.50568,-2.4279 -17.72522,-3.80340003 -25.55859,-4.33450003 z" inkscape:label="Body"/>
	<path      id="none"               style="display:inline;fill:#b4b4b4;fill-opacity:1;stroke-width:0.1"    d="m 494.67006,5.7140269 c 4.63761,0 8.98721,0.4273 14.88721,1.2773 47.7,6.9000001 74.9999,33.2010001 84.3999,81.5010001 4.1,20.700003 7.20069,52.699103 9.20069,93.599103 1.9,39.1 -0.8001,72.2006 -7.1001,86.1006 -3.5,7.7 -15.09971,27.3003 -16.19971,27.3003 -0.4,0 -3.30097,-3.3008 -6.50097,-7.3008 -7.9,-9.9 -19.89961,-22.2993 -31.59961,-32.7993 -22.3,-19.8 -42.6001,-27.8004 -61.1001,-23.9004 -18.3,3.8 -42.99893,23.6998 -64.39893,51.7998 -5.1,6.7 -9.70117,11.9997 -10.20117,11.6997 -1.2,-0.8 -10.8998,-16.7997 -14.2998,-23.6997 -6.2,-12.7 -8.69971,-31.4996 -8.69971,-64.5996 0,-46.7 5.1001,-102.0001 11.6001,-128.600103 2.6,-10.5 9.0998,-25.4 14.2998,-33 14.6,-21.1 38.59875,-34.4077 69.09961,-38.1006001 7.04958,-0.8535 11.97519,-1.2782 16.61279,-1.2773 z M 152.55727,712.29163 l 0.50098,4.9995 c 0.3,2.8 1.29941,5.9001 2.39941,7.1001 3.4,3.8 6.69981,3.6006 15.79981,-0.8994 4.5,-2.3 9.70049,-5.3006 11.50049,-6.6006 1.7,-1.3 3.39912,-2.3994 3.59912,-2.3994 0.2,0 -0.4,3.2001 -1.5,7.1001 -2.1,7.8 -2.99893,12.1004 -8.89893,40.4004 -11.8,56.5 -14.80068,76.3997 -15.20068,100.1997 l -0.19922,10.8003 3.3999,4.6992 c 3.7,5.2 9.0999,9.2009 15.3999,11.4009 4.2,1.5 17.89961,1.9998 21.09961,0.7998 1.4,-0.6 1.6,0.2998 1.5,6.7998 l -0.0996,7.4004 -4.80029,3.0996 c -7.7,5.1 -27.99951,22.4004 -34.99951,29.9004 -12.9,13.7 -17.3002,20.2994 -30.7002,45.8994 -7.9,15 -8.40029,15.6995 -7.80029,10.9995 0.4,-2.8 1.50049,-8.599 2.50049,-12.999 3,-12.9 4.09892,-27.3003 2.89892,-36.3003 -2.4,-17.9 -10.39892,-39.5997 -20.89892,-56.6997 l -3.90088,-6.3999 3.50098,-6.8013 c 2.8,-5.5 3.69882,-8.9988 4.79882,-18.2988 2.2,-16.7 4.20069,-41.6003 6.20069,-73.8003 l 1.69922,-28.3008 7.20117,-7.1997 c 8.3,-8.4 14.1,-16.0997 18,-23.6997 1.5,-3 3.6999,-6.6998 4.8999,-8.2998 z m 681.90088,0.4746 c 0.9,0.05 2.19981,1.925 3.79981,5.625 3.4,7.8 13.00048,21.3003 20.50048,28.8003 l 7.09864,7.1997 1.10009,14.3013 c 0.6,7.9 1.50059,22.5993 2.10059,32.7993 2.5,44.7 5.39971,66.3996 10.1997,75.0996 2.9,5.3 3.1007,6.0011 1.7007,7.6011 -5.60001,6.5 -16.59981,31.6993 -20.29981,46.2993 -3.5,13.6 -4.2001,23.6002 -2.6001,35.2002 1.2,9.4 5.19912,29.6003 6.59912,33.3003 1.9,5.49997 -2.19902,-1.301 -8.49902,-14.001 -16.3,-32.8 -33.60059,-53.8996 -59.10059,-72.0996 -4.1,-3 -8.30029,-5.9998 -9.30029,-6.7998 -2.1,-1.6 -3.6002,-7.0994 -3.7002,-12.8994 0,-3.6 0.10078,-3.7 2.80078,-3 4.2,1.2 14.2,0.8994 19.5,-0.6006 5.4,-1.6 14.59903,-9.2005 17.49903,-14.5005 2.9,-5.2 2.10117,-27.6996 -1.79883,-52.5996 -4.6,-29.6 -12.90108,-70.9004 -19.60108,-97.4004 -1.4,-5.4 -2.29951,-9.9993 -1.99951,-10.2993 0.2,-0.2 2.59942,1.1996 5.39942,3.0996 6.7,4.9 18.00009,9.9007 20.60009,9.2007 4.1,-1 6.60059,-4.4 6.60059,-9 0,-3.6 0.50039,-5.3762 1.40039,-5.3262 z m -370.40039,58.7256 c 0.4,0 1.1999,1.8997 1.8999,4.1997 3,10 15.20049,30.2007 22.00049,36.2007 l 2.09912,1.8999 v 188.29977 188.2998 l -4.59961,0.7002 c -9.4,1.4 -15.99961,-0.9997 -19.59961,-7.1997 -1.8,-3 -7.00029,-21.8004 -10.80029,-38.9004 -3.9,-17.2 -9.90059,-36.7007 -14.10059,-45.2007 -4.5,-9.3 -12.69941,-18.9993 -20.39941,-23.7993 -7.4,-4.6 -23.9998,-12 -33.7998,-15 -12.8,-3.9 -19.70069,-10.8007 -19.70069,-19.7007 0,-11.2 8.90039,-56.09887 16.40039,-82.39887 8.5,-30 33.39961,-88.7007 75.09961,-177.2007 2.6,-5.6 5.10049,-10.1997 5.50049,-10.1997 z m 58.59961,0 c 0.3,0 2.50029,4.2007 4.80029,9.2007 9.8,21 24.49942,52.5993 26.39942,56.7993 24.8,55.1 41.40107,95.0993 46.60107,112.2993 7.2,23.6 14.59922,57.40047 18.19922,82.00047 l 1.60107,11.5005 -2.80078,5.2002 c -3.9,7.2 -7.30049,9.3996 -20.50049,13.5996 -20.6,6.5 -38.80009,17.8 -46.10009,28.5 -6.4,9.3 -13.29883,28.3994 -18.29883,50.3994 -4.5,20 -9.50078,37.701 -11.80078,42.501 -1.3,2.8 -3.4002,5.0989 -5.2002,5.8989 -3.4,1.7 -13.19951,2.6007 -16.99951,1.7007 l -2.50049,-0.6006 0.30029,-188.3994 0.20069,-188.29977 4.1001,-4.4004 c 7.5,-8.2 19.39892,-28.1997 19.39892,-32.6997 0,-1.6 1.8001,-5.2002 2.6001,-5.2002 z m 181.51318,350.82567 c 0.1375,-0.625 0.5376,-0.1755 1.2876,0.8745 0.9,1.2 3.70029,7.1005 6.30029,13.0005 7.8,18.4 14.89961,40.1988 18.09961,55.7988 7.7,37.2 10.09991,58.301 10.89991,95.001 l 0.59912,27.999 -7.09864,16.0005 c -9.1,20.6 -17.70117,43.3994 -20.70117,54.8994 -1.3,5 -3.69941,16.7006 -5.39941,26.1006 -1.8,9.3 -3.6001,18.9995 -4.1001,21.4995 -0.6,2.5 -1.9,11.9 -3,21 -2,15.5 -2.4999,17.8999 -3.3999,16.8999 -0.2,-0.2 -1.89942,-6.6994 -3.89942,-14.3994 -4,-16 -12.20019,-39.9995 -20.20019,-58.9995 -3,-7.2 -5.50049,-13.5006 -5.50049,-14.1006 0,-0.6 1.60059,-4.4005 3.60059,-8.5005 5.5,-11.3 11.69931,-26.9994 16.29931,-41.3994 2.3,-7.2 4.8001,-14.7995 5.6001,-16.9995 2.4,-6.8 9.19961,-34.301 12.09961,-48.501 2.3,-11.7 2.80068,-16.5991 3.20068,-36.5991 0.4,-24.3 -1.70039,-75.801 -4.40039,-104.001 -0.3,-3.25 -0.42461,-4.9487 -0.28711,-5.5737 z m -422.32951,0.548 -1.28279,23.827 c -4.2,68.3 -4.30098,97.7988 -0.50098,117.2988 8,40.6 24.50059,93.3012 35.10059,112.2012 1.6,2.9 2.90039,6.1993 2.90039,7.2993 0,1.2 -1.4999,5.7993 -3.3999,10.2993 -11.5,28 -24.60059,67.4013 -24.60059,74.3013 0,1.3 -0.39941,2.4993 -0.89941,2.7993 -0.8,0.6 -2.40059,-6.2994 -3.60059,-15.8994 -1.1,-8 -5.40059,-33.901 -8.10059,-48.501 -5.2,-27.4 -10.09912,-42.0993 -26.09912,-77.7993 l -5.50049,-12.3003 0.0996,-26.6997 c 0.2,-35.6 3.00059,-60.5995 11.10059,-99.4995 4.6,-22.4 15.89732,-56.3883 22.09732,-63.1883 2.65436,-4.134 2.66588,-4.1333 2.68596,-4.1387 z m 365.81731,567.9256 c 0.2,0.1 1.6999,10.0013 3.3999,21.8013 4.4,30.6 8.09902,44.4997 18.99902,71.6997 l 5.2002,12.8994 -4.89991,4.8999 c -12.1,12 -19.19931,28.101 -19.29931,44.001 -0.1,3.7 -0.20108,3.7999 -1.60108,1.8999 -0.8,-1.1 -3.69951,-5.8 -6.49951,-10.5 -2.7,-4.7 -7.6999,-12.1 -10.8999,-16.5 -3.3,-4.4 -6.30059,-9.0001 -6.60059,-10.1001 -0.3,-1.2 0.40108,-5.2 1.60108,-9 3.8,-12.5 10.59951,-48.6007 15.49951,-82.7007 3.4,-23.6 4.40059,-29.1004 5.10059,-28.4004 z m -308.21338,0.1875 c 0.2125,0.2125 0.41338,1.0137 0.71338,2.5137 0.4,1.9 1.69892,10.7 2.89892,19.5 2.3,17.3 3.2999,23.3995 7.8999,48.4995 4,21.8 6.7003,33.9006 9.3003,42.6006 l 2.10058,7.1997 -9.30029,12.3003 c -5.1,6.8 -10.70029,15.1991 -12.30029,18.5991 -1.6,3.5 -3.3002,6.4998 -3.7002,6.7998 -0.5,0.3 -1.2,-2.9997 -1.5,-7.1997 -0.8,-8.1 -4.39931,-19.1001 -8.79931,-26.6001 -1.4,-2.3 -5.3001,-7.0992 -8.6001,-10.6992 -3.4,-3.6 -6.09961,-7.1003 -6.09961,-7.8003 0,-0.8 2.29912,-7.1006 5.09912,-14.1006 11,-27.2 15.80078,-46.4001 19.30078,-76.1001 0.8,-6.9 1.8002,-13.399 2.2002,-14.499 0.35,-0.85 0.57412,-1.2262 0.78662,-1.0137 z m 321.33838,419.9136 c 0.575,0.575 1.4747,2.0999 3.0747,4.8999 7.2,12.8 27.19971,27.2002 55.19971,39.7002 8.4,3.7 15.59941,7.3991 15.89941,8.0991 0.4,0.8 0.20049,21.0004 -0.49951,44.9004 -0.7,23.9 -1.79941,71.2 -2.39941,105 -0.6,33.8 -1.40069,65.3005 -1.70069,70.0005 l -0.49951,8.499 8.49903,1.7007 c 11.3,2.1 17.20058,5 18.60058,9 2.9,8.3 0.1999,24.7003 -8.6001,51.3003 -4.1,12.7 -4.60029,14.9991 -4.80029,24.5991 -0.2,9.7 -0.49951,11.2008 -3.49951,17.8008 -5.9,12.7 -15.69951,18.5996 -34.99951,21.0996 -8.3,1.1 -10.30049,1.1001 -16.00049,-0.3999 -11,-2.8 -17.19941,-8.3 -20.39941,-18 -4.5,-13.5 -6.20059,-47.4003 -3.60059,-73.8003 2.6,-26.8 -1.5,-100.1003 -7.5,-136.8003 -3.8,-22.6 -7.99932,-35.8001 -20.79932,-64.1001 -3.6,-7.9 -10.00019,-22.2999 -14.20019,-31.8999 -4.2,-9.6 -8.30108,-18.7994 -9.10108,-20.3994 -0.8,-1.6 -1.39892,-2.9996 -1.39892,-3.0996 0,-0.1 5.0998,-3.6003 11.2998,-7.8003 21.8,-14.7 29.0003,-24.5 36.3003,-49.5 0.3,-1 0.55,-1.3748 1.125,-0.7998 z m -334.92627,0.5991 c 0.4,0 2.10019,3.9001 3.70019,8.6001 4.1,11.8 9.80088,21.8009 15.90088,27.9009 4.9,4.8 25.7002,19.5 27.7002,19.5 0.5,0 0.89941,0.5989 0.89941,1.3989 0,1.3 -7.90029,19.6006 -24.30029,56.1006 -11.1,24.7 -15.99961,39.0998 -19.59961,57.7998 -3.6,18.1 -4.4001,25.7002 -7.1001,65.2002 -3.2,47 -3.39961,58.8001 -1.59961,77.6001 2,20.8 1.99961,35.7004 0.0996,52.4004 -2.6,22.4 -5.29961,29.2995 -13.59961,34.9995 -6.1,4.3 -13.70088,5.7 -24.90088,4.5 -11.7,-1.2 -15.8998,-2.3003 -23.2998,-6.3003 -11.5,-6.1 -16.89961,-16.6997 -16.59961,-32.6997 0.1,-7.8 -0.40049,-9.9995 -5.50049,-25.9995 -6.2,-19.3 -8.19961,-27.8 -9.09961,-39 -1,-13.1 3.29941,-17.4006 20.39941,-20.1006 l 7.40039,-1.1001 -0.59912,-16.1997 c -0.4,-8.8 -1.10107,-43.9996 -1.60107,-78.0996 -0.6,-34.1 -1.5002,-78.2998 -2.2002,-98.2998 -0.7,-21.6 -0.79882,-36.6001 -0.29882,-37.1001 0.5,-0.4 5.19892,-2.5011 10.39892,-4.6011 16.2,-6.5 33.80049,-15.9997 41.50049,-22.1997 7,-5.7 17.79961,-17.1001 19.59961,-20.6001 1.1,-2 2.29971,-3.7002 2.69971,-3.7002 z" inkscape:label="None"/>
	<path      id="gastrocnemius"      style="display:inline;stroke-width:0.1"                                d="m 310.05727,1802.4913 c 0.5,0 3.10039,2.6012 5.90039,5.7012 7.5,8.5 12.89971,19.7998 14.69971,30.7998 5.8,35.3 3.30029,185.499 -4.19971,245.499 -2,16.6 -2.99951,21.5011 -4.99951,25.6011 -6.6,13.2 -21.1999,24.9 -46.8999,37.5 -10,4.9 -19.50069,9.0995 -21.20069,9.4995 l -3.0996,0.6006 -0.7002,-33.7002 c -1,-44.8 -0.1001,-93.6005 1.8999,-109.0005 2.2,-16.4 5.9001,-35.3995 10.1001,-51.4995 13.4,-51.3 17.30029,-70.0007 18.30029,-87.2007 0.8,-12.3 0.89991,-13.0001 4.89991,-20.6001 2.3,-4.4 6.8997,-14.0003 10.1997,-21.3003 3.3,-7.4 6.7,-14.7989 7.5,-16.3989 0.9,-1.7 1.59961,-3.3006 1.59961,-3.6006 0,-1.6 5.2,-11.9004 6,-11.9004 z m 366.3999,0.3003 c 0.6,0.2 4.70108,8.4003 9.10108,18.3003 4.5,9.8 10.79951,23.0994 13.99951,29.3994 l 5.79932,11.5005 0.90088,12.4995 c 0.9,15 4.90029,35.201 12.30029,63.501 13.1,49.7 17.49902,75.1 18.99902,109.5 0.6,13.1 -1.0999,109.8997 -1.8999,110.6997 -0.6,0.6 -28.69961,-12.5999 -36.09961,-16.8999 -16.2,-9.5 -30.09951,-22.0007 -34.99951,-31.7007 -9.5,-18.9 -16.20108,-215.5992 -9.10108,-268.6992 1.4,-10.7 4.1002,-17.8006 9.7002,-26.1006 4.6,-6.7 9.9998,-12.4 11.2998,-12 z m -52.59961,14.6997 c 0.2,0 1.09991,0.8007 1.89991,1.7007 4.1,5.3 11.7999,17.0998 16.8999,26.2998 l 5.80078,10.4004 0.0996,68.0991 c 0.1,40 0.60039,76.4 1.40039,88.5 1.5,25.5 4.79961,67.001 6.09961,77.001 2.1,16.1 0.9,22.1995 -7.5,39.4995 -3.5,7.2 -5.89971,10.4997 -11.69971,16.1997 -8.4,8.2 -24.70058,19.7999 -26.10058,18.3999 -1.2,-1.2 -9.3002,-25.5002 -11.2002,-33.7002 -1.7,-7.5 -5.89912,-32.5994 -8.09912,-48.8994 -1,-7.6 -1.70088,-27.9005 -2.40088,-65.5005 -0.5,-30 -1.3999,-59.8995 -1.8999,-66.4995 -0.6,-6.6 -1.49912,-21.5 -2.09912,-33 -0.7,-14 -1.60117,-22.7002 -2.70117,-26.2002 l -1.59961,-5.2002 8.90039,-9.3999 c 13.5,-14.1 24.9,-32.7995 31.5,-51.4995 1.2,-3.4 2.3997,-6.2007 2.6997,-6.2007 z m -260.79931,0.7002 c 0.4,0.4 1.1999,2.7998 1.8999,5.2998 4.4,15.3 18.99912,39.1001 32.09912,52.1001 l 8.80078,8.8008 -1.5,4.2993 c -1,2.8 -2.00039,12.9008 -2.90039,28.3008 -0.7,13.2 -1.79941,30.7 -2.39941,39 -0.6,8.2 -1.50098,38.6 -2.00098,67.5 -0.5,28.9 -1.39951,55.3995 -1.99951,58.9995 -0.6,3.6 -2.20059,13.8995 -3.60059,22.9995 -1.4,9.1 -3.20009,19.401 -4.10009,23.001 -2,9.2 -10.19864,34.2001 -11.59864,35.6001 -1.1,1.1 -17.50078,-10.5008 -25.30078,-17.8008 -7.7,-7.4 -11.30029,-13.1995 -16.80029,-27.4995 -4.3,-11 -5.1002,-17.0999 -3.7002,-25.8999 1.4,-8.4 4.60069,-45.9004 6.20069,-71.9004 0.7,-10.9 1.30039,-50.2002 1.40039,-92.2002 l 0.29883,-73.1001 5.20019,-9.3999 c 6.5,-11.5 19.00098,-29.2001 20.00098,-28.1001 z"      inkscape:label="Gastrocnemius" />
	<path      id="semimembranosus"    style="display:inline;stroke-width:0.1"                                d="m 423.34243,1582.5494 c 0.53437,-1.0265 1.71474,2.2931 2.61474,8.1431 3.9,25.9 8.60108,40.1986 16.60108,50.5986 2.5,3.3 4.59922,6.8003 4.69922,7.8003 0.3,1.9 -1.2002,12.6004 -3.7002,28.4004 -1.5,9.2 -5,42.6005 -6,58.0005 -1.5,23.2 -3.69912,47.2 -5.09912,55.5 -4.2,25.5 -10.7,51.3995 -18,70.9995 -2,5.5 -4.1999,11.6 -4.8999,13.5 -0.7,1.9 -1.7002,3.6002 -2.2002,3.7002 -1.4,0.5 -14.3998,-13.4009 -20.2998,-21.9009 -6.3,-8.8 -12.70029,-21.2993 -16.80029,-32.7993 -4.4,-12.4 -4.60088,-14.1003 -2.40088,-21.3003 1.9,-6.1 7.00019,-23.4992 9.70019,-33.1992 0.8,-2.8 3.40039,-12.2 5.90039,-21 16.9,-59.6 39.60059,-153.6999 39.60059,-163.8999 0,-1.375 0.10605,-2.2008 0.28418,-2.543 z m 138.11133,0.709 c 0.77343,0.3516 2.62851,7.3837 5.10351,19.5337 6.6,32.9 15.99981,70.8992 32.29981,130.6992 12.1,44.2 16.40029,59.2012 19.80029,68.7012 2.9,8.3 2.69971,9.6998 -3.30029,24.7998 -4.9,12.4 -7.49893,17.3996 -14.89893,28.5996 -7,10.7 -19.40107,24.6001 -21.10107,23.6001 -0.5,-0.4 -3.09864,-6.2009 -5.59864,-12.9009 -14.5,-39 -20.40117,-68.3993 -23.70117,-118.2993 -2.7,-40.8 -8.2001,-86.8996 -11.6001,-97.5996 -0.2,-0.9 0.10088,-2.3 0.90088,-3 1.2,-1.3 5.3001,-7.5007 10.1001,-15.2007 2.9,-4.7 6.49961,-16.9993 9.09961,-31.2993 1.4,-7.4 2.50049,-14.5002 2.50049,-15.7002 0,-1.425 0.13769,-2.0508 0.39551,-1.9336 z"      inkscape:label="Semimembranosus" />
	<path      id="semitendinosus"     style="display:inline;stroke-width:0.1"                                d="m 367.49526,1420.5538 c 0.9375,0.1375 2.3123,0.6381 4.3623,1.5381 2.4,1.1 8.09971,1.8998 16.19971,2.2998 l 12.3999,0.6006 0.90088,3.999 c 0.5,2.2 2.39971,10.1005 4.19971,17.5005 4.5,18 10.90068,50.0005 13.70068,68.5005 1.9,12.4 2.19873,18.9995 2.19873,37.9995 v 22.9995 l -4.69921,21.501 c -9.7,44.6 -14.20079,63.2995 -25.30079,105.4995 -2.5,9.3 -5.59941,20.9995 -6.89941,25.9995 -2.3,8.8 -4.4002,16.1 -12.7002,45 -2.2,7.7 -4.70048,16.8002 -5.50048,20.2002 -1.6,6.6 -2.69912,7.8005 -3.59912,4.0005 -2.4,-9.7 -12.00069,-61.1006 -13.70069,-72.6006 -1.1,-7.8 -3.19961,-21.3 -4.59961,-30 -1.4,-8.6 -2.50049,-18.5997 -2.50049,-22.1997 -0.1,-6.5 0.2001,-9.5994 4.1001,-44.3994 1.2,-9.9 2.70098,-23.9005 3.50098,-31.0005 0.9,-7.2 1.89902,-18 2.49902,-24 0.5,-6.1 1.60088,-17.7995 2.40088,-25.9995 2.2,-22 5.39961,-56.701 6.09961,-66.501 0.4,-4.7 1.29951,-15.299 1.99951,-23.499 0.8,-8.3 1.70059,-19.7 2.10059,-25.5 0.3,-5.8 0.8001,-10.7998 1.1001,-11.2998 0.3,-0.55 0.7998,-0.7762 1.7373,-0.6387 z m 252.06299,0.3384 c 0.6,0.2 1.79971,8.7997 2.69971,19.1997 1,10.4 2.60019,29.2004 3.70019,41.9004 4.6,52.2 9.7,104.299 16.5,167.499 2.6,24 2.49951,30.2005 -1.00049,49.0005 -0.8,4.7 -2.00049,11.9005 -2.50049,16.0005 -1.3,9.5 -6.79951,41.5995 -12.49951,72.4995 -0.9,4.9 -2.0001,10.0994 -2.6001,11.3994 -0.9,2.3 -0.90019,2.301 -2.20019,0.501 -0.7,-1 -2,-5.5009 -3,-9.9009 -1,-4.4 -4.79981,-18.0995 -8.29981,-30.4995 -23.1,-80.8 -43.0999,-165.3994 -45.3999,-191.3994 -2.5,-28.6 2.50069,-65.0008 16.70069,-122.8008 l 4.69921,-19.5 h 10.1001 c 7.4,0 11.7001,-0.5991 16.1001,-2.0991 3.3,-1.1 6.50049,-1.9003 7.00049,-1.8003 z"      inkscape:label="Semitendinosus" />
	<path      id="biceps_femoris"     style="display:inline;stroke-width:0.1"                                d="m 663.85805,1387.4923 c 0.5,0 3.49951,6.5997 6.49951,14.6997 11.7,30.9 17.6,48.2998 21,62.2998 4.3,17.6 4.39971,18.2005 5.69971,44.5005 2.6,50.4 7.40117,104.8998 11.70117,131.2998 l 2.59864,16.2993 -2.69971,21.2007 c -3.2,25.3 -5.09912,45.7993 -6.59912,70.2993 -1.2,18.5 -1.10098,19.4999 2.49902,49.8999 2,16.2 3.20029,56.5005 1.80029,56.5005 -1.1,0 -6.69912,-11.6005 -17.09912,-35.5005 -3.8,-8.8 -7.70048,-17.6 -8.50048,-19.5 -9.9,-22.1 -19.89961,-52.7992 -22.59961,-69.1992 -1.1,-6.7 -3.1,-19.1003 -4.5,-27.3003 -1.4,-8.3 -3.2001,-21.9995 -4.1001,-30.4995 -0.8,-8.5 -2.2,-20.7 -3,-27 -0.8,-6.3 -1.90049,-16.2005 -2.50049,-22.0005 -0.6,-5.8 -2.40049,-23.5995 -4.00049,-39.4995 -4,-39.8 -9.49951,-99.201 -10.99951,-119.001 -0.6,-6.6 -1.3999,-16.2995 -1.8999,-21.4995 -0.6,-5.2 -1.29961,-13.1997 -1.59961,-17.6997 l -0.7002,-8.2002 4.69922,-2.8008 c 7.4,-4.4 18.40059,-12.9994 26.10059,-20.3994 4,-3.8 7.60019,-6.8994 8.20019,-6.8994 z m -341.39209,0.1714 c 0.96094,0.028 3.1166,2.0528 10.3916,9.0278 5.3,5 14.0004,12.001 19.4004,15.501 8.4,5.4 9.80029,6.6986 9.30029,8.5986 -0.2,1.2 -1.10098,10.7007 -2.00098,21.2007 -2.1,25.3 -5.19951,61.4993 -6.49951,74.7993 -0.6,5.9 -1.9,20.1 -3,31.5 -1.9,19.6 -3.2999,33.8012 -7.8999,77.7012 -3.4,31.8 -7.89951,69.6 -9.49951,78 -0.8,4.4 -1.80059,10.5 -2.10059,13.5 -1.2,9.7 -7.3999,36.2 -10.8999,46.5 -4.6,13.8 -12.2003,32.399 -19.8003,48.999 -3.6,7.7 -9.39941,20.6007 -12.89941,28.7007 l -6.3999,14.6997 -0.30029,-19.6992 c -0.2,-12.9 0.29931,-24.7012 1.29931,-34.2012 3.4,-31.3 3.70108,-35.9995 3.10108,-51.4995 -0.6,-16.8 -3.0001,-42.5994 -7.1001,-75.8994 -1.8,-14.2 -2.20108,-20.9005 -1.60108,-23.5005 0.9,-3.6 2.80049,-17.3001 5.50049,-40.1001 2,-16.4 5.30059,-56.6005 6.60059,-80.5005 1.9,-35 2.89941,-49 3.89941,-54 2.3,-11.6 9.10059,-34.199 15.60059,-51.999 1.4,-3.9 3.39892,-9.3 4.39892,-12 2.6,-7.1 9.20127,-23.8998 9.80127,-24.7998 0.2,-0.325 0.38721,-0.5382 0.70752,-0.5288 z"      inkscape:label="Biceps Femoris" />
	<path      id="gracilis"           style="display:inline;stroke-width:0.1"                                d="m 495.95766,1350.9913 2.6001,3 c 1.4,1.6 6.1,8.0006 10.5,14.1006 17.8,25.2 44.29932,46.7005 65.79932,53.5005 3.9,1.3 7.20117,2.8991 7.20117,3.5991 0,0.6 -1.10049,5.2005 -2.50049,10.0005 -4.2,14.6 -10.99941,45.6998 -14.39941,65.2998 -3,17.7 -4.10059,29.4995 -5.10059,54.4995 -0.9,23.1 -2.9001,36.9005 -8.6001,59.5005 -1.9,7.3 -7.8997,20.8005 -11.6997,26.5005 l -2.6001,3.7998 -1.1001,-2.6997 c -4.1,-10.8 -18.8999,-73.6001 -22.8999,-97.1001 -4.2,-24.7 -5,-37.901 -6,-107.001 l -1.00049,-60 -2.6001,-8.499 c -1.5,-4.7 -3.80019,-10.8 -5.20019,-13.5 z m -7.40039,1.5 c 0.1,0 -1.50019,5.1002 -3.70019,11.2002 -4,11.1 -3.99991,11.5998 -4.89991,30.7998 -0.4,10.7 -0.79941,37 -0.89941,58.5 0,21.4 -0.50049,45.7 -1.00049,54 -1.8,27.1 -9.49941,67.5 -20.39941,108 -3.2,11.8 -6.20049,23.3008 -7.00049,26.8008 -0.4,1.5 -1.1,2.5002 -1.5,2.2002 -2.2,-1.3 -10.1999,-16.7 -12.3999,-24 -2.2,-7 -7.49961,-32.601 -9.09961,-44.001 -0.4,-2.2 -0.8001,-12.2989 -1.1001,-22.3989 -0.9,-31.8 -5.10049,-59.4001 -16.00049,-104.6001 -2.4,-9.9 -4.59951,-19.601 -4.99951,-21.501 l -0.60059,-3.5991 6.80127,-2.2998 c 8.7,-3.1 14.09883,-5.8009 22.79883,-11.4009 13.8,-9 35.20059,-30.6993 45.60059,-46.2993 5.5,-8.1 7.89941,-11.4009 8.39941,-11.4009 z"      inkscape:label="Gracilis" />
	<path      id="vastus_lateralis"   style="display:inline;stroke-width:0.1"                                d="m 246.05825,1327.0924 c 0.5,0.5 2.99902,6.0999 5.49902,12.3999 15.9,39.4 18.80039,49.8995 25.40039,90.4995 2.3,13.7 5.1003,30.7995 6.3003,37.9995 1.8,10.3 2.19951,16.2 1.99951,28.5 -0.3,22.8 -5.99971,97.3 -10.19971,133.5 -0.5,4.4 -0.89941,9.1004 -0.89941,10.4004 -0.1,1.3 -0.4002,2.2003 -0.7002,1.8003 -0.9,-0.9 -2.20088,-7.2001 -5.40088,-28.1001 -1.7,-10.9 -4.79902,-28.7994 -6.99902,-39.8994 -3.7,-19.4 -6.2,-38.9012 -7.5,-58.2012 -0.3,-5 -1.20098,-19.3995 -2.00098,-31.9995 -1.4,-21.8 -2.3,-41.9 -4.5,-99 -1.7,-46.6 -1.99902,-58.8994 -0.99902,-57.8994 z m 494.20019,0 c 0.5,0.4 0.69883,9.7992 0.29883,24.1992 -0.8,31.2 -4.1,107.9007 -6,141.2007 -2.6,43.6 -5.69941,66.8 -15.89941,118.5 -0.8,3.8 -1.99971,11.9 -2.69971,18 -1.5,14.1 -2.2998,15.6001 -3.7998,7.1001 -1.5,-8.7 -5.70108,-55.5006 -7.60108,-84.6006 -0.8,-12.4 -1.99902,-28.0999 -2.49902,-34.8999 -1.8,-21.8 -1.30049,-34.2003 1.99951,-54.3003 1.7,-10.1 4.00059,-23.8998 5.10059,-30.7998 2.9,-17.9 7.39873,-40.3995 9.69873,-48.4995 2.3,-8.2 11.60117,-33.7005 16.20117,-44.5005 1.8,-4.1 3.40019,-8.5002 3.70019,-9.7002 0.3,-1.3 1,-1.9992 1.5,-1.6992 z"      inkscape:label="Vastus Lateralis" />
	<path      id="gluteus_maximus"    style="display:inline;stroke-width:0.1"                                d="m 422.65835,1082.4913 c 0.6,0 3.29892,2.6012 5.89892,5.7012 9.9,12.1 14.2001,23.7999 23.6001,63.3999 5.9,25.1 8.90098,34.1995 12.50098,37.9995 3.9,4.1 11.29941,6.3001 18.89941,5.6001 l 6.20068,-0.6006 0.59912,58.7007 c 0.8,79 0.001,87.6002 -9.59912,102.7002 -21.9,34.5 -55.80117,61.0989 -82.20117,64.3989 -12,1.4 -22.09941,10e-4 -30.89941,-4.3989 -11.9,-6.1 -25.60078,-15.9007 -35.80078,-25.7007 -9.1,-8.8 -9.89912,-9.9998 -15.59912,-21.7998 -7,-14.5 -19.60059,-51.5003 -24.60059,-72.3003 -9,-36.9 -11.09932,-53.3997 -10.29932,-77.6997 l 0.59912,-16.4004 9.60059,-14.0991 c 11.8,-17.3 17.4002,-24.5008 27.7002,-35.8008 13.5,-14.8 26.50029,-23.8991 73.80029,-51.5991 13.5,-8 25.39902,-15.3008 26.49902,-16.3008 1.1,-1 2.50108,-1.8003 3.10108,-1.8003 z m 141.59912,0 c 0.6,0 1.70009,0.901 2.60009,2.001 1,1 9.80069,6.5988 19.70069,12.2988 61.4,35.3 75.19902,46.2012 98.49902,77.7012 16.9,22.7 18.30117,25.2988 19.20117,33.2988 1.9,19.2 0.49873,42.4006 -3.80127,63.6006 -6.8,33.8 -20.29902,76.7997 -30.99902,98.6997 -4.4,9.1 -6.50107,12.1001 -12.10107,17.6001 -18.9,18.5 -37.69932,30.3004 -52.29932,32.9004 -8,1.4 -18.19951,0.4 -28.99951,-3 -15.3,-4.8 -37.70029,-20.9998 -52.80029,-38.2998 -14.8,-16.8 -22.2004,-29.3998 -25.4004,-42.7998 -1.2,-5.1 -2.39931,-125.5002 -1.29931,-135.7002 l 0.70019,-6.3003 5.79932,0.7002 c 11.1,1.1 18.29971,-2.6001 22.19971,-11.6001 1.1,-2.5 5.30029,-17.7006 9.30029,-33.6006 7.8,-30.9 10.69971,-39.8989 16.19971,-50.8989 3.3,-6.5 11.5,-16.6011 13.5,-16.6011 z"      inkscape:label="Gluteus Maximus" />
	<path      id="gluteus_medius"     style="display:inline;stroke-width:0.1"                                d="m 622.56997,1074.8668 c 12.3375,0.375 25.2373,1.0245 27.9873,1.6245 16.1,3.4 20.30078,5.1005 25.30078,10.0005 6.9,6.8 16.4003,25.6 22.8003,45 1.9,6 2.5999,10.9995 3.3999,24.4995 0.5,9.3 1.19961,21.6999 1.59961,27.3999 0.5,6.7 0.2997,10.2013 -0.3003,9.8013 -0.5,-0.3 -2.70029,-3.4009 -4.80029,-6.9009 -5.9,-9.6 -21.39961,-29.3994 -30.09961,-38.3994 -14.7,-15.1 -23.6997,-21.4999 -68.6997,-48.3999 -16.9,-10.1 -30.7002,-19.0007 -30.7002,-19.7007 0,-2.1 9.10049,-4.0997 19.00049,-4.1997 5.2,-0.1 9.59941,-0.4002 9.89941,-0.7002 0.5,-0.5 12.27481,-0.3999 24.61231,-0.025 z m -243.92432,0.2373 c 14.9375,0.2875 29.41152,0.8879 32.31152,1.5879 4.5,1.1 7.1001,2.4002 7.1001,3.7002 0,0.8 -4.09902,3.2996 -29.49902,18.0996 -38.3,22.3 -50.79981,30.8005 -65.29981,44.5005 -10.8,10.2 -22.10088,23.8999 -32.40088,39.3999 -3.9,5.8 -7.49912,11.0001 -8.09912,11.6001 -0.6,0.7 -0.70029,-2.2005 -0.30029,-8.5005 0.3,-5.2 1.09922,-17.4999 1.69922,-27.3999 1.2,-21.3 3.40039,-29.4006 13.40039,-50.1006 7,-14.4 11.69951,-21.9002 15.49951,-24.7002 2.9,-2.1 20.50098,-6.6999 30.50098,-7.8999 4.75,-0.55 20.1499,-0.5746 35.0874,-0.2871 z"      inkscape:label="Gluteus Medius" />
	<path      id="internal_oblique"   style="display:inline;stroke-width:0.1"                                d="m 624.37026,1046.6788 c 0.8625,-0.3875 1.63701,-0.137 2.18701,0.813 1,1.7 14.60029,9.2002 22.80029,12.7002 9.8,4.1 17.89991,6.2001 27.39991,7.1001 l 7.59961,0.7002 2.70117,9.4995 c 1.4,5.2 4.09892,12.8995 5.89892,16.9995 5.7,13 8.10059,20.1001 8.10059,23.6001 0,1.9 -0.39941,3.3999 -0.89941,3.3999 -0.4,0 -2.5,-3.9993 -4.5,-8.7993 -5.3,-12.9 -13.10108,-26.0998 -18.10108,-30.7998 -9,-8.4 -30.49951,-11.9006 -67.99951,-11.1006 -24.5,0.5 -24.89951,0.5007 -21.49951,-1.2993 1.9,-1 7.09902,-2.8005 11.49902,-4.0005 4.4,-1.2 9.20108,-2.7995 10.60108,-3.4995 3,-1.6 8.79902,-7.8003 11.49902,-12.3003 0.9,-1.6 1.85039,-2.6257 2.71289,-3.0132 z m -262.11182,-0.086 c 0.4,-0.1 1.49981,1.3 2.29981,3 2.2,4.1 8.29941,10.6999 11.39941,12.3999 1.4,0.7 5.30049,1.799 8.50049,2.499 3.3,0.7 8.89951,2.8007 12.49951,4.7007 l 6.60059,3.3999 -8.50049,-0.7998 c -4.7,-0.4 -18.8,-0.8002 -31.5,-0.7002 -19.3,0.1 -24.50049,0.4002 -32.50049,2.2002 -16.6,3.6 -20.49922,5.4991 -25.69922,12.5991 -2.5,3.3 -7.40029,12.0001 -10.80029,19.1001 -3.4,7.2 -5.99868,10.7236 -7.79868,12.5236 -0.0421,-0.1067 -0.0892,-0.076 -1.20132,-1.8229 0.4,-1.9 3.30059,-10.0008 6.60059,-17.8008 3.2,-7.8 6.89912,-17.8993 8.09912,-22.2993 l 2.10058,-8.1006 h 4.59961 c 12.3,-0.1 30.89942,-6.3995 45.89942,-15.4995 4.8,-3 9.00136,-5.3994 9.40136,-5.3994 z"      inkscape:label="Internal Oblique" />
	<path      id="external_oblique"   style="display:inline;stroke-width:0.1"                                d="m 677.55727,976.69153 0.79981,7.1001 c 0.4,4 1.90136,15.2997 3.40136,25.19967 2.1,14.6 2.59903,21.2998 2.49903,35.2998 -0.1,9.5 -0.39981,17.8014 -0.79981,18.4014 -1.1,1.8 -15.20029,-0.1007 -24.30029,-3.2007 -9.5,-3.3 -29.89893,-14.0998 -32.89893,-17.2998 -1.4,-1.6 -2.50048,-5.5997 -4.00048,-14.6997 -1.9,-12.4 -1.7003,-15 1.1997,-15 3.9,0 35.80069,-20.40087 48.20069,-30.90087 z m -368.69971,0.7998 c 0.4,0 3.69971,2.4009 7.19971,5.4009 11.8,9.9 26.4002,19.59887 38.2002,25.39887 l 11.80078,5.7012 -0.50098,3.4995 c -1.4,11.9 -2.79951,20.7996 -3.49951,22.5996 -0.9,2.2 -15.79951,11.2 -27.49951,16.5 -6.9,3.1 -22.1001,6.9009 -28.1001,6.9009 -3,0 -3.0998,-0.1998 -3.7998,-5.2998 -1.3,-11 -0.50059,-27.8002 2.39941,-50.2002 1.6,-12.69997 3,-24.70077 3,-26.80077 0,-2 0.3998,-3.7002 0.7998,-3.7002 z"      inkscape:label="External Oblique" />
	<path      id="extensors"          style="display:inline;stroke-width:0.1"                                d="m 885.63536,885.46253 c 0.2844,-0.002 0.4219,0.3794 0.4219,1.1294 0,0.6 3.9001,9.0002 8.6001,18.7002 4.8,9.8 9.5011,20.2002 10.6011,23.2002 3.6,10.3 11.6988,72.39897 21.2988,164.49897 1.4,13.2 3.4,31.9005 4.5,41.5005 1.1,9.6 2.701,23.6005 3.501,31.0005 0.8,7.4 1.8002,15.4989 2.2002,17.8989 0.4,3.1 0.299,4.2002 -0.501,3.7002 -2.3,-1.4 -16.5002,-21.0995 -18.7002,-25.9995 -6.3,-13.5 -14.9,-38.1996 -24,-69.0996 -1.5,-5 -3.4996,-11.7 -4.5996,-15 -6,-19.5 -18.59941,-68.4008 -21.89941,-85.30077 -5.9,-29.7 -6.70108,-37.7993 -4.60108,-49.2993 3,-16.4 7.30039,-28.6997 16.40039,-46.1997 3.75,-7.275 5.9247,-10.7253 6.7778,-10.73 z m -783.67819,0.1289 c 0.3,0 3.2003,5.2997 6.3003,11.6997 6.3,12.7 10.60097,23.5002 14.00097,35.2002 1.9,6.1 2.29981,10 2.29981,21 0,19 -2.90098,33.501 -18.50098,93.50097 -8.500001,32.5 -23.998921,82.7991 -31.398921,101.0991 -3.2,8 -7.50098,16.5009 -11.00098,21.9009 -5.6,8.3 -13.19951,17.2989 -13.99951,16.3989 -0.2,-0.2 0,-3.2994 0.49951,-6.8994 0.4,-3.6 1.50088,-13.2995 2.40088,-21.4995 0.8,-8.3 2.39951,-22.2005 3.49951,-31.0005 1.1,-8.8 4.20049,-36.6995 7.00049,-61.9995 11.4,-103.89997 14.7001,-127.60087 19.1001,-138.90087 3,-7.6 19.098821,-40.6 19.798821,-40.5 z m 97.60108,24.3003 0.29883,3 c 0.2,1.7 -0.39932,8.0006 -1.29932,14.1006 -3.2,21.8 -5.70049,34.3 -10.00049,51 -7.1,27.49997 -11.39951,38.69997 -25.99951,68.99997 -7.8,16.1 -15.50049,32.8 -37.00049,79.5 -10.4,22.5 -26.299021,60.199 -29.499021,69.999 -2.7,7.8 -3,10.2004 -3,20.9004 0,16.5 2.90019,29.9994 8.200191,38.3994 5.5,8.8 11.39981,21.301 12.79981,27.501 1.8,7.9 1.49922,13.6994 -1.30078,23.3994 -1.5,5.2 -2.79922,12.7005 -3.19922,19.0005 -1.1,17.6 -4.2,24.7998 -10.500001,24.7998 -2.3,0 -3.50098,-0.7007 -5.00098,-3.2007 -2.5,-4.2 -2.9999,-7.7993 -3.3999,-28.2993 -0.2,-13.4 -0.69951,-17.7002 -1.99951,-20.2002 -2.9,-5.8 -7.80039,-6.7992 -14.90039,-3.1992 -8.4,4.3 -32.0003,30.8992 -33.3003,37.6992 -1.3,6.2 4.70108,22.2003 19.60108,52.8003 5.5,11.2 9.99902,20.8999 9.99902,21.3999 0,2 -8.6001,1.1003 -11.6001,-1.1997 -4,-3.1 -4.2998,-3.4008 -15.7998,-20.8008 -21.4,-32.3 -35.5997101,-60.5998 -37.1997101,-74.2998 -1,-8.3 3.89961,-21.9992 21.0996101,-58.6992 12.8,-27.5 18.40117,-41.3 20.70117,-51 1.9,-8.3 2.29912,-9.0011 8.09912,-15.1011 10.4,-10.8 18.79991,-24.4999 24.39991,-39.3999 3.1,-8.2 11.10029,-32.2995 13.80029,-40.9995 1.4,-5 3.30049,-10.8005 4.00049,-13.0005 1.9,-5.5 9.499021,-32.7995 14.499021,-51.4995 2.3,-8.5 5.50117,-19.3 7.20117,-24 4.4,-12.5 24.39864,-50.39947 32.59864,-61.99947 5.9,-8.4 29.40019,-31.8006 39.70019,-39.6006 z m 586.29931,0.2007 c 0.7,-0.8 22.50079,17 31.30079,25.5 14,13.7 23.19921,27.4994 40.69921,60.8994 5.8,11.09997 10.89971,24.40047 14.69971,38.50047 20.09999,73.5 33.30119,113.5998 43.20119,131.2998 3.6,6.5 16.9988,23.3994 19.7988,24.8994 0.9,0.6 2.6005,4.9 4.0005,10.5 2.5,9.9 7.5995,23.5008 13.9995,37.3008 14.3,30.9 21.1007,46.299 24.2007,54.999 4.7,13.5 4.4004,19.8005 -1.5996,34.0005 -4.2,9.8 -18.0009,35.5004 -24.9009,46.4004 -18.3,29 -22.9996,34.1001 -31.5996,34.1001 -4.3,0 -4.8001,1.599 6.3999,-21.501 15,-30.9 19.9995,-43.7999 19.9995,-51.3999 0,-5 -6.5991,-14.4997 -18.5991,-26.6997 -11.3,-11.6 -16.6003,-15.3999 -21.3003,-15.3999 -8.4,0.1 -9.5999,3.9004 -10.8999,34.4004 -0.8,17.8 -0.7995,17.8002 -3.4995,20.2002 -7.8,6.7 -12.6012,-0.5012 -14.70119,-22.2012 -0.6,-6.6 -2.09922,-15.2989 -3.19922,-19.3989 -4.4,-15.6 -2.20039,-28.101 7.59961,-44.001 2.5,-4.1 5.3007,-8.9999 6.2007,-10.8999 3.3,-7.1 5.5996,-18.6991 6.0996,-30.5991 0.5,-10.2 0.2,-13.2 -1.5,-19.5 -4.4,-15.9 -37.69961,-91.5998 -69.09961,-156.7998 -15.5,-32.2 -24.10059,-57.39997 -30.60059,-89.99997 -2.9,-14.8 -7.4002,-44.0001 -6.7002,-44.6001 z"      inkscape:label="Extensors" />
	<path      id="latissimus_dorsi"   style="display:inline;stroke-width:0.1"                                d="m 373.45717,623.79163 12,18.9009 c 6.7,10.4 17.00059,26.5996 23.10059,36.0996 30.3,47.6 52.5,84.3004 52.5,86.9004 0,0.6 -3.39961,8.2987 -7.59961,17.1987 -8.9,18.6 -10.4999,22.2011 -24.3999,52.6011 -37.1,81.4 -48.40039,111.2 -56.90039,150 -1.1,5.2 -2.8002,12.7992 -3.7002,16.69917 -0.8,4 -1.70029,7.3008 -1.80029,7.3008 -0.1,0 -4.89922,-2.3998 -10.69922,-5.2998 -19.5,-9.89997 -46.40019,-29.50047 -48.70019,-35.50047 -2.5,-6.4 -4.09971,-21.4002 -5.69971,-53.2002 -0.3,-6.3 -1.20098,-17.6005 -2.00098,-25.0005 -0.8,-7.4 -1.89902,-20.1989 -2.49902,-28.3989 -0.7,-10.3 -1.90088,-18.201 -3.90088,-26.001 -1.6,-6.2 -3.5001,-15.0992 -4.1001,-19.6992 -0.7,-5.6 -2.29922,-11.1004 -4.69922,-16.4004 -2,-4.4 -6.80029,-17.4995 -10.80029,-28.9995 -3.9,-11.6 -10.1999,-28.2005 -13.8999,-37.0005 -3.7,-8.8 -6.99971,-17.4005 -7.19971,-19.0005 -0.2,-1.7 -1.30088,-11.8 -2.40088,-22.5 -2.8,-26.8 -4.79971,-40.1993 -7.19971,-47.7993 -1,-3.5 -1.7,-6.6009 -1.5,-6.9009 0.3,-0.2 2.90079,1.4006 5.80079,3.6006 8.5,6.4 13.09941,7.6 29.39941,7.5 17.2,0 30.60068,-2.3999 54.20068,-9.3999 21.5,-6.5 27.19971,-8.4995 35.69971,-12.4995 z m 239.80079,0.6621 c 1,0.1875 2.60019,0.8376 5.20019,2.0376 3.4,1.6 13.2002,5.201 21.7002,8.001 29.7,9.9 50.5999,14.2994 67.8999,14.3994 16.5,0.1 20.59902,-0.7005 27.99902,-5.5005 3.4,-2.2 6.4002,-3.7995 6.7002,-3.4995 0.3,0.2 -0.2001,3.2998 -1.1001,6.7998 -1.9,7.6 -5.99961,38.8998 -7.59961,57.7998 -1.4,16.2 -1.2,15.7 -9,34.5 -3.4,8.2 -8.8,22.601 -12,32.001 -3.1,9.3 -7.59941,21.3993 -9.89941,26.7993 -3,7 -4.80108,13.1 -6.10108,21 -1,6.2 -2.89931,15.0007 -4.29931,19.7007 -1.9,6.4 -2.80059,12.9 -3.60059,25.5 -0.6,9.4 -1.8001,23.0995 -2.6001,30.4995 -0.8,7.4 -1.69951,20.7005 -1.99951,29.5005 -0.8,20.7 -2.09971,33.5988 -4.19971,40.7988 -1.8,6.6 -5.10078,9.9009 -23.80078,23.4009 -13.4,9.7 -33.19883,21.30027 -36.29883,21.30027 -0.5,0 -1.70117,-4.2003 -2.70117,-9.3003 -2.5,-12.99997 -8.99922,-38.90067 -13.69922,-54.20067 -6.8,-22.4 -42.40039,-104.3988 -70.40039,-162.2988 -7,-14.5 -8.20039,-17.7003 -7.40039,-19.8003 2.4,-6.3 19.60059,-34.4006 59.10059,-96.6006 14.3,-22.3 26.20049,-41.2996 26.50049,-42.0996 0.2,-0.65 0.59961,-0.9258 1.59961,-0.7383 z"      inkscape:label="Latissimus Dorsi" />
	<path      id="triceps_brachii"    style="display:inline;stroke-width:0.1"                                d="m 765.45815,581.49133 c 0.2,0 3.70029,4.0008 7.80029,8.8008 4.2,4.9 12.09864,12.7997 17.59864,17.6997 8.2,7.1 10.50078,9.7004 11.80078,13.4004 0.9,2.5 3.39941,8.8991 5.39941,14.0991 2.1,5.2 5.79981,15.8005 8.29981,23.5005 13.3,40.8 16.40048,61.1006 10.00048,63.6006 -5.4,2 -17.5,-5.7999 -37.5,-24.3999 -25.4,-23.5 -33.49951,-35.2001 -37.99951,-55.1001 l -2.20019,-9.7002 4.80029,-9.7002 c 6.6,-13.2 11.6001,-29.8008 11.6001,-38.8008 0,-1.9 0.1999,-3.3999 0.3999,-3.3999 z m -544.9541,1.0606 c 0.18437,0.1531 0.27803,0.515 0.35303,1.04 0.2,1.3 1.00136,6.0004 1.90136,10.4004 2.1,11.1 6.39873,23.1995 11.19873,31.9995 l 4.1001,7.4004 -1.5,7.2993 c -2.9,13.5 -6.6998,22.0996 -14.2998,31.5996 -10.1,12.6 -17.0002,19.801 -29.2002,30.501 -19.1,16.8 -31.99951,23.2993 -34.99951,17.7993 -3.7,-7 3.89941,-40.2001 17.39941,-76.1001 1.3,-3.6 3.90118,-10.8989 5.70118,-16.3989 3.1,-9.5 3.49931,-10.1 10.29931,-16.5 9.1,-8.6 15.39951,-15.0005 22.99951,-23.5005 4.125,-4.575 5.49375,-5.9994 6.04688,-5.54 z m -42.02197,39.353 c 1.35,-0.6375 1.77548,-0.5129 1.37548,0.2871 -0.5,0.9 -1.8996,4.1993 -4.5996,10.2993 -3.7,8.6 -12.2001,33.8011 -16.1001,48.1011 -4.7,17.1 -6.00059,20.799 -9.60059,27.999 -7.3,14.6 -18.09892,30.4008 -25.39892,37.3008 l -3.10108,3 v -4.5 c 0,-8.4 3.1,-45.4009 4.5,-54.9009 2,-12.2 5.80029,-27.499 9.30029,-36.999 l 2.69971,-7.5 13.5,-7.0005 c 7.4,-3.9 16.60049,-9.1993 20.50049,-11.7993 3.3,-2.25 5.57432,-3.6501 6.92432,-4.2876 z m 628.57617,0.0864 c 0,-1 1.09971,-0.3991 7.19971,3.9009 3.5,2.4 12.3999,7.599 19.8999,11.499 7.5,3.9 14.29922,7.9004 15.19922,8.9004 0.8,0.9 2.70009,5.4997 4.10009,10.1997 6.9,22.7 10.10059,44.4 11.10059,75 l 0.60059,17.5005 -5.10059,-5.5005 c -10.3,-11 -23.69932,-33.8995 -28.29932,-48.4995 -1.4,-4.4 -4.20068,-13.6005 -6.20068,-20.5005 -5,-17.1 -11.09961,-34.8998 -15.09961,-44.2998 -1.9,-4.3 -3.3999,-8.0002 -3.3999,-8.2002 z m -60.79981,23.7012 c 0.5,0.2 2.49932,4.7997 4.29932,10.1997 1.8,5.4 5.0001,12.3995 7.1001,15.4995 2.1,3.1 11.4001,13.1008 20.6001,22.3008 l 16.8999,16.5996 2.39941,11.3994 c 1.3,6.2 3.3,15.6008 4.5,20.8008 13.2,59.3 21.90108,115.3993 19.60108,127.2993 -2.1,11 -19.10059,19.5995 -33.60059,16.9995 -5.3,-1 -3.6001,2.9012 -16.1001,-37.7988 -15.8,-51.7 -19.90029,-66.1 -22.80029,-79.5 -2.7,-12.4 -6.2,-33.1999 -7.5,-45.3999 -0.4,-2.7 -1.29912,-6.0012 -2.09912,-7.2012 -0.8,-1.3 -1.5,-4.2998 -1.5,-6.7998 0,-5.3 2.49892,-28.6991 4.39892,-41.0991 0.8,-5 1.70059,-12.3008 2.10059,-16.3008 0.4,-4 1.10068,-7.199 1.70068,-6.999 z m -507.10107,2.2617 c 0.325,-0.2375 0.55088,0.1882 0.90088,1.1382 0.5,1.2 1.9999,12.399 3.3999,24.999 3.8,33.6 3.99932,37.9007 2.79932,43.7007 -0.6,2.9 -2.1003,12.1997 -3.3003,20.6997 -4.5,33 -6.69912,41.4 -32.09912,123 -8.3,26.4 -7.0997,24.6004 -16.1997,25.4004 -11.6,1 -17.20088,-1.0003 -24.90088,-9.3003 l -4.69922,-4.9995 v -10.8003 c 0,-10.1 2.69951,-35.3003 4.99951,-46.8003 0.5,-2.8 2.09951,-11.5 3.49951,-19.5 3.6,-20 11.30049,-56.9996 16.00049,-76.5996 0.8,-3.3 1.5,-6.7011 1.5,-7.6011 0,-0.8 2.70039,-3.7991 5.90039,-6.5991 7.6,-6.7 22.69932,-22.2002 28.29932,-29.2002 5.5,-6.9 8.3998,-11.7999 9.7998,-16.8999 0.6,-2.2 1.8001,-5.7003 2.6001,-7.8003 0.75,-1.7 1.175,-2.5999 1.5,-2.8374 z"      inkscape:label="Triceps Brachii" />
	<path      id="teres_major"        style="display:inline;stroke-width:0.1"                                d="m 742.25796,532.49233 c 0.4,0 1.20029,2.5997 1.80029,5.6997 1.7,8.8 5.49961,17.7996 12.09961,28.5996 6,9.7 5.99941,9.7995 5.39941,15.4995 -2.3,19.8 -11.09951,42.701 -19.99951,51.501 -2.5,2.5 -7.5998,6.0999 -11.2998,7.8999 -6.6,3.3 -6.70069,3.2992 -21.20069,3.1992 -13.2,0 -15.9999,-0.3998 -30.3999,-3.7998 -17.2,-4.1 -51.6,-14.7998 -55.5,-17.2998 -1.9,-1.2 -2.09902,-1.6994 -0.99902,-2.3994 0.8,-0.5 2.49941,-0.9009 3.89941,-0.9009 1.4,0 7.09951,-1.2001 12.49951,-2.6001 22.5,-5.7 43.5,-14.1989 55.5,-22.3989 14.3,-9.7 31.70108,-31.2012 42.10108,-52.2012 3,-5.9 5.69961,-10.7988 6.09961,-10.7988 z m -498.02491,1.2363 c 0.775,0.3875 1.92481,2.0629 3.42481,4.9629 10.4,20.7 25.39941,41.3996 36.89941,51.0996 8.4,7 16.40108,11.7013 30.10108,17.3013 14.8,6.1 39.5998,13.3989 45.7998,13.3989 1.2,0 3.1001,0.6004 4.1001,1.4004 1.6,1.2 0.39892,1.8004 -12.10108,5.9004 -31.2,10.3 -42.9997,13.4997 -61.1997,16.1997 -27.3,4.2 -41.69903,-0.9003 -51.99903,-18.3003 -7.7,-13 -10.80068,-21.8994 -13.70068,-39.8994 -1.6,-9.7 -1.69961,-9.1996 5.90039,-21.0996 6.7,-10.6 11.6001,-22.4012 11.6001,-28.2012 0,-2.25 0.3998,-3.1502 1.1748,-2.7627 z"      inkscape:label="Teres Major" />
	<path      id="rhomboid"           style="display:inline;stroke-width:0.1"                                d="m 322.14743,477.54163 c -2.825,-0.025 -6.32471,0.6508 -10.57471,2.0508 -12.9,4.2 -33.09941,14.9991 -54.89941,29.0991 -11.8,7.7 -12.7002,8.8006 -11.2002,14.1006 1.6,6 16.70039,33.5992 23.90039,43.6992 7.5,10.6 19.59952,22.1998 28.99952,27.7998 8.8,5.3 25.8998,12.2011 41.2998,16.6011 30.1,8.7 31.80068,8.9993 30.20068,5.7993 -3.5,-6.6 -10.00009,-30.8002 -17.60009,-65.2002 -9,-40.6 -17.3001,-65.8993 -23.6001,-71.7993 -1.55,-1.4 -3.70088,-2.1254 -6.52588,-2.1504 z m 342.7251,0.0498 c -3.7,-0.1 -4.90039,0.4011 -7.40039,3.1011 -6.5,6.9 -13.59932,29.9993 -25.29932,82.2993 -5.4,24.3 -10.5,42.9999 -13.5,49.8999 -1.2,2.6 -1.89961,4.9994 -1.59961,5.3994 0.4,0.3 5.69893,-0.6987 11.89893,-2.1987 41.9,-10.5 67.10078,-22.8002 80.80078,-39.7002 6.6,-8.1 13.80029,-18.7998 19.80029,-29.2998 11.7,-20.7 14.09951,-27.5012 10.99951,-31.2012 -3.4,-4.1 -33.39941,-22 -50.39941,-30 -12.3,-5.9 -19.70078,-8.2998 -25.30078,-8.2998 z"      inkscape:label="Rhomboid" />
	<path      id="deltoid"            style="display:inline;stroke-width:0.1"                                d="m 700.25796,428.59243 c 0.9,0 7,1.2989 13.5,2.8989 16.6,4.3 25.00039,7.301 38.90039,14.001 33.8,16.4 59.49902,40.3002 71.49902,66.7002 8.3,18 14.00039,47.5993 17.90039,91.2993 1.1,12.9 2.6999,26.2005 3.3999,29.5005 0.8,3.3 1.3001,6.0988 1.1001,6.2988 -0.4,0.4 -11.19951,-5.2992 -22.99951,-12.1992 -41.1,-23.9 -77.50049,-71.4998 -77.50049,-101.2998 0,-11.8 -1.09971,-13.1003 -19.19971,-24.3003 -18.6,-11.4 -37.20097,-21.2002 -47.00097,-24.7002 -9.6,-3.4 -18.79932,-4.1999 -22.29932,-1.8999 -8.7,5.7 -17,29.7996 -30,87.0996 -7.5,33 -12.89951,52.3009 -15.49951,54.9009 -1.5,1.5 -2.60049,-0.1004 -5.50049,-7.4004 -4.4,-11.2 -8.39961,-28.3007 -9.09961,-39.2007 -1,-15.5 1.6,-29 10.5,-54 1.7,-4.9 3.09961,-9.4993 3.09961,-10.2993 0,-0.8 -1.19971,-2.8 -2.69971,-4.5 -2.4,-2.5 -3.60029,-3.0007 -7.80029,-3.2007 -10.7,-0.3 -12.49971,-2.8992 -13.19971,-19.6992 -0.8,-18.9 2.29912,-34.3996 8.09912,-40.5996 l 3.3003,-3.501 20.40088,0.6006 c 21.2,0.7 36.79941,-0.3996 66.89941,-4.5996 6.9,-1 13.3002,-1.7999 14.2002,-1.8999 z m -412.53809,1.2495 c 6.9375,0.1 15.9874,0.9995 29.8374,2.7495 14.3,1.8 23.2,2.2998 43.5,2.2998 23.1,0.1 25.90039,0.2999 28.40039,1.8999 6,3.9 9.79942,19.2012 9.89942,38.7012 0,18.2 -1.69893,21.0996 -13.39893,22.5996 -6,0.8 -10.2001,3.9 -10.1001,7.5 0,1.3 2.19951,9.4996 4.99951,18.0996 7.4,22.8 8.59991,29.4002 7.89991,45.7002 -0.4,11.7 -1.0001,15.2996 -4.1001,25.5996 -1.9,6.6 -4.69922,14.7008 -6.19922,17.8008 -2.4,5.4 -2.70088,5.699 -3.90088,3.999 -3.2,-4.6 -8.2,-21.8993 -15,-52.2993 -11.4,-50.4 -18.39912,-74.3994 -24.59912,-83.3994 -1.2,-1.8 -3.7001,-4.3001 -5.6001,-5.6001 -2.9,-2 -4.10009,-2.2007 -10.10009,-1.7007 -10.6,0.9 -30.20069,9.7995 -54.20069,24.4995 -23.6,14.5 -25.89951,17.0007 -24.49951,27.2007 1.4,10.2 -5.79961,27.8 -19.59961,48 -12,17.5 -32.70039,37.4997 -50.90039,49.1997 -9.8,6.3 -29.90059,17.1996 -30.60059,16.5996 -0.2,-0.3 0.20049,-2.6994 1.00049,-5.3994 2.1,-7.3 2.4001,-9.9999 4.1001,-31.8999 2.8,-37.8 8.70068,-68.5995 16.70068,-87.4995 16,-37.7 56.79932,-68.5011 109.29932,-82.6011 5.4,-1.45 10.22461,-2.1493 17.16211,-2.0493 z"      inkscape:label="Deltoid" />
	<path      id="trapezius"          style="display:inline;stroke-width:0.1"                                d="m 493.55825,234.29113 c 0.6,-0.6 4.89971,0.601 13.19971,3.501 7.4,2.5 19.19921,9.8993 28.69921,17.7993 10.4,8.7 30.00098,28.6997 36.50098,37.1997 l 4.39893,5.7012 -1.19971,21.2988 c -0.6,11.6 -1.1001,29.5002 -1.1001,39.7002 0,16.5 0.1999,18.8002 1.8999,21.7002 4.6,7.4 31.60098,22.7005 57.50098,32.5005 16,6 25.19941,8.4993 38.39941,10.2993 10.1,1.3 12.09991,1.9011 10.89991,3.1011 -1.5,1.5 -47.29961,4.3997 -66.09961,4.1997 l -19.8003,-0.3003 -4.29931,4.8003 c -5.3,5.8 -7,10.699 -9,26.499 -1.3,9.6 -1.40059,14.2007 -0.60059,21.2007 1.6,14.5 4.59971,18.3006 14.69971,18.6006 6.7,0.2 9.3999,1.3993 9.3999,4.2993 0,1 -1.59951,5.6008 -3.49951,10.3008 -1.8,4.7 -4.9002,14.0989 -6.7002,20.8989 -2.9,11.2 -3.19921,13.8004 -3.19921,26.9004 -0.1,10.6 0.39882,16.6 1.79882,22.5 2.9,12.6 7.4001,25.9004 10.1001,29.9004 1.4,2 2.50049,4.0992 2.50049,4.6992 0,1.8 -3.20049,7.2999 -19.00049,31.8999 -50.9,79.5 -63.99902,101.301 -71.49902,119.001 -1.9,4.7 -4.90059,11.199 -6.60059,14.499 -3.8,7.4 -13.0001,20.7003 -14.6001,21.3003 -1,0.3 -1.29931,-31.0005 -1.29931,-146.5005 0,-80.7 -0.20098,-156.6998 -0.50098,-168.7998 -0.8,-35.9 -1.59902,-258.0002 -0.99902,-258.7002 z m -8.34375,0.3955 c 3.09375,-0.239 3.31846,1.5047 3.54346,7.8047 0.1,4.1 0.40019,86.2005 0.70019,182.5005 0.3,96.2 0.89932,221.9007 1.29932,279.2007 0.4,72.9 0.30009,104.2998 -0.39991,104.2998 -0.6,0 -3.8997,-4 -7.1997,-9 -5.9,-8.5 -8.3001,-13.2005 -14.6001,-28.0005 -5.9,-14 -21.80049,-40.5 -61.00049,-102 -32.3,-50.5 -29.69971,-45.9999 -28.19971,-48.3999 2.2,-3.5 7.60059,-17.9007 9.60059,-25.7007 3.3,-12.4 4.29932,-19.8991 4.29932,-30.5991 -0.1,-13.5 -2.19981,-24.501 -8.29981,-42.501 -2.7,-8 -4.8999,-15.2997 -4.8999,-16.1997 0,-2.1 2.5,-3.199 9,-3.999 7,-0.9 9.69961,-2.7006 12.09961,-8.1006 5.8,-13.1 2.00078,-48.7005 -6.19922,-58.0005 -4.5,-5 -8.30019,-5.6995 -27.70019,-4.9995 -19.3,0.8 -63.4003,-2.3996 -64.8003,-4.5996 -0.3,-0.5 -0.1997,-0.9009 0.3003,-0.9009 3.3,-0.1 22.49951,-3.2996 27.49951,-4.5996 29.6,-7.6 71.00039,-28.0004 79.40039,-38.9004 4.1,-5.4 4.1998,-14.5 0.7998,-73.5 l -0.60058,-10.5 8.30127,-10.9995 c 20.2,-26.5 45.59892,-47.2995 62.89892,-51.4995 1.775,-0.425 3.12598,-0.726 4.15723,-0.8057 z"      inkscape:label="Trapezius" />
</svg>